<?xml version="1.0" encoding="UTF-8"?>
<svg version="1.1" xmlns="http://www.w3.org/2000/svg" width="1024" height="1024">
<path d="M0 0 C337.92 0 675.84 0 1024 0 C1024 337.92 1024 675.84 1024 1024 C686.08 1024 348.16 1024 0 1024 C0 686.08 0 348.16 0 0 Z " fill="#323A43" transform="translate(0,0)"/>
<path d="M0 0 C1.48506891 0.40069837 2.97068868 0.79936479 4.45703125 1.1953125 C20.24257728 5.5786924 35.46503952 12.81617675 49 22 C49.56380371 22.37737305 50.12760742 22.75474609 50.70849609 23.14355469 C58.50671683 28.39107605 65.5694357 34.07577378 72.37890625 40.5546875 C74.89113668 42.9818704 74.89113668 42.9818704 77.40234375 44.8203125 C89.59498371 55.05112919 99.66664573 70.20624883 107.02441406 84.17822266 C108.07179441 86.13406653 109.16902064 88.05630241 110.2734375 89.98046875 C116.08811184 100.27716215 119.84198619 110.6296688 123 122 C123.39426332 123.37117082 123.78878199 124.74226825 124.18359375 126.11328125 C128.02546753 139.89055023 129.37944198 152.77500852 129.3125 167 C129.31034485 167.82147522 129.3081897 168.64295044 129.30596924 169.48931885 C129.25377392 181.88314193 128.8004389 193.87962122 126 206 C125.79068848 206.92409668 125.58137695 207.84819336 125.36572266 208.80029297 C119.34737389 234.76906325 108.60180312 256.79417585 93.08837891 278.42138672 C92.12348984 279.82088711 91.25301609 281.28444795 90.3984375 282.75390625 C88.98550699 285.02327789 87.69586158 286.33607629 85.625 288 C82.40257134 290.7000313 79.46516226 293.54564945 76.55786133 296.57250977 C44.84928542 329.39903155 -0.19771343 344.84127478 -45.07421875 345.9375 C-89.70134129 346.61591706 -132.86148851 329.50294265 -165.16015625 298.76171875 C-167.79744064 296.19698689 -170.40917074 293.61158911 -173 291 C-173.79277344 290.21625 -174.58554687 289.4325 -175.40234375 288.625 C-188.38800599 275.17913709 -198.3759459 259.01347442 -206 242 C-206.39316406 241.12730469 -206.78632813 240.25460937 -207.19140625 239.35546875 C-224.05110793 199.48723301 -224.88407738 152.84742794 -211 112 C-210.25852913 110.18698414 -209.47577779 108.38936468 -208.625 106.625 C-206.86142309 102.89435653 -205.25727323 99.15344799 -203.75 95.3125 C-198.56767479 82.8263352 -191.5187597 71.47725269 -183 61 C-182.33726074 60.17701416 -182.33726074 60.17701416 -181.66113281 59.33740234 C-154.17435381 25.41408811 -113.926665 0.48945481 -70.10546875 -4.67578125 C-69.08066406 -4.78277344 -68.05585938 -4.88976562 -67 -5 C-65.86949219 -5.17015625 -64.73898437 -5.3403125 -63.57421875 -5.515625 C-41.93476201 -8.19777804 -20.84238065 -6.09116588 0 0 Z " fill="#2F3A44" transform="translate(558,278)"/>
<path d="M0 0 C0.93172028 -0.0152623 1.86344055 -0.0305246 2.82339478 -0.04624939 C24.4050917 -0.33385757 44.31958213 0.21261531 65.17578125 6.30859375 C65.96936035 6.52757324 66.76293945 6.74655273 67.58056641 6.97216797 C88.54251347 12.88137798 109.2019069 23.76016995 126.17578125 37.30859375 C126.74361328 37.75380371 127.31144531 38.19901367 127.89648438 38.65771484 C166.60309138 69.2268802 192.94206086 113.85460962 199.41796875 162.79296875 C201.46267162 180.73511784 201.29316914 199.53159063 198.17578125 217.30859375 C197.98759159 218.63755857 197.80282996 219.9670123 197.62109375 221.296875 C193.39720691 250.39665761 179.76023987 280.56996202 161.17578125 303.30859375 C159.94794922 304.84 159.94794922 304.84 158.6953125 306.40234375 C127.25046556 345.0184086 82.55694075 369.11581676 33.17578125 375.30859375 C30.25179393 375.48324441 27.33098093 375.54173791 24.40234375 375.58203125 C23.56947845 375.59451401 22.73661316 375.60699677 21.87850952 375.61985779 C2.99045152 375.84803376 -14.4948705 375.34094988 -32.82421875 370.30859375 C-34.33938204 369.93043689 -35.85498393 369.55403147 -37.37109375 369.1796875 C-68.56130358 361.10562609 -95.83571313 343.47851757 -118.82421875 321.30859375 C-119.61054688 320.57382812 -120.396875 319.8390625 -121.20703125 319.08203125 C-127.4957745 313.05623197 -132.74368672 306.35134365 -137.82421875 299.30859375 C-138.23285156 298.74430664 -138.64148438 298.18001953 -139.0625 297.59863281 C-150.42957414 281.71179348 -159.20058193 264.50981525 -165.02392578 245.86157227 C-165.60375435 244.0118873 -166.20672055 242.16940361 -166.82373047 240.33178711 C-169.46867933 232.24399294 -171.01894947 224.3072799 -172.07421875 215.87109375 C-172.15793732 215.2112851 -172.24165588 214.55147644 -172.32791138 213.87167358 C-174.99715163 192.41431248 -175.41784018 170.52696517 -170.82421875 149.30859375 C-170.65792969 148.5304834 -170.49164063 147.75237305 -170.3203125 146.95068359 C-164.47191474 120.55166593 -152.53672697 94.5765181 -135.82421875 73.30859375 C-135.15648437 72.42042969 -134.48875 71.53226562 -133.80078125 70.6171875 C-123.03618923 56.77994373 -110.01311748 44.55817918 -95.82421875 34.30859375 C-95.28780762 33.90656738 -94.75139648 33.50454102 -94.19873047 33.09033203 C-67.78242402 13.3751336 -33.08517704 0.52809099 0 0 Z M-2.68505859 11.43457031 C-38.46187627 13.34928603 -74.29448364 30.888427 -100.82421875 54.30859375 C-101.32727539 54.74606934 -101.83033203 55.18354492 -102.34863281 55.63427734 C-125.03050335 75.44476354 -141.04724399 99.86648536 -150.82421875 128.30859375 C-151.118125 129.11296875 -151.41203125 129.91734375 -151.71484375 130.74609375 C-154.09242642 137.42355996 -155.74775379 144.32759234 -157.33789062 151.22753906 C-157.7831281 153.13276207 -158.26289258 155.0298309 -158.74609375 156.92578125 C-165.21291682 186.27051614 -160.84705783 218.08606617 -151.82421875 246.30859375 C-151.49550781 247.36433594 -151.16679687 248.42007813 -150.828125 249.5078125 C-142.51038711 274.23921984 -126.34110495 296.27899403 -107.82421875 314.30859375 C-107.32792969 314.82679688 -106.83164062 315.345 -106.3203125 315.87890625 C-83.97472963 339.00217762 -51.98540285 353.73786483 -20.82421875 360.30859375 C-19.80972656 360.52257812 -18.79523438 360.7365625 -17.75 360.95703125 C17.51095097 367.31783025 54.62607878 361.82002995 87.17578125 347.30859375 C88.29726563 346.80972656 89.41875 346.31085938 90.57421875 345.796875 C109.75494814 336.73321226 126.11173329 323.71547478 140.87158203 308.62792969 C141.53013184 307.95536133 142.18868164 307.28279297 142.8671875 306.58984375 C143.45701416 305.98205078 144.04684082 305.37425781 144.65454102 304.74804688 C146.17578125 303.30859375 146.17578125 303.30859375 148.17578125 302.30859375 C149.20337057 300.65879438 150.19546468 298.9869135 151.17578125 297.30859375 C152.02231822 296.03827317 152.87870874 294.77449102 153.7421875 293.515625 C168.9552139 271.2519754 179.20213644 249.68184471 185.17578125 223.30859375 C185.44914307 222.12547607 185.44914307 222.12547607 185.72802734 220.91845703 C190.87194681 197.5328172 190.83143722 169.31329549 184.17578125 146.30859375 C183.92908691 145.39513184 183.68239258 144.48166992 183.42822266 143.54052734 C179.89511564 130.48603309 175.49264063 118.26892603 169.17578125 106.30859375 C168.86560059 105.70789063 168.55541992 105.1071875 168.23583984 104.48828125 C159.81728823 88.31896372 148.19295842 74.00034149 135.17578125 61.30859375 C134.59054687 60.67824219 134.0053125 60.04789062 133.40234375 59.3984375 C126.70674809 52.34192683 119.16958226 46.78698598 111.17578125 41.30859375 C110.5425293 40.87369629 109.90927734 40.43879883 109.25683594 39.99072266 C94.67042282 30.11286662 78.55688874 22.47954009 61.51025391 17.93847656 C59.8302861 17.48519096 58.15602219 17.01057014 56.48583984 16.52246094 C36.50418124 10.73522258 17.88086462 10.52895362 -2.68505859 11.43457031 Z " fill="#101921" transform="translate(498.82421875,260.69140625)"/>
<path d="M0 0 C1.09473608 0.83950267 2.1751648 1.69766412 3.25 2.5625 C3.85328125 3.03816406 4.4565625 3.51382812 5.078125 4.00390625 C7.13308679 6.13822632 8.37638173 8.38947199 9.78613281 10.9777832 C12.21833903 15.02966657 15.2982723 18.63183954 18.25 22.3125 C19.53044201 23.90924168 20.80672007 25.50933448 22.078125 27.11328125 C22.91972168 28.16189331 22.91972168 28.16189331 23.77832031 29.23168945 C25 31 25 31 25 33 C20.32037894 31.32084186 16.16554145 28.91100887 11.875 26.4375 C10.45712697 25.62126499 9.03790688 24.80736435 7.6171875 23.99609375 C6.99440918 23.63700928 6.37163086 23.2779248 5.72998047 22.90795898 C3.84224152 21.85804318 3.84224152 21.85804318 1 21 C1.00276538 21.83561714 1.00553076 22.67123428 1.00837994 23.53217316 C1.07481894 43.92509011 1.12436741 64.31798825 1.15543652 84.71099091 C1.17086313 94.57315473 1.19187161 104.43524603 1.22631836 114.29736328 C1.25635015 122.89962488 1.27560552 131.50183391 1.28226548 140.10414648 C1.28615454 144.65316119 1.29520522 149.20202559 1.31719017 153.75099182 C1.33777381 158.04539602 1.34379034 162.33959008 1.33932304 166.63403893 C1.34013858 168.19796077 1.34597254 169.76189072 1.35761642 171.32576942 C1.5177502 193.97196911 -3.45320774 213.62235216 -19.25 230.6875 C-27.67127509 238.61340596 -36.79477418 243.33781883 -48 246 C-48.74378906 246.19078125 -49.48757813 246.3815625 -50.25390625 246.578125 C-66.68375379 249.10219831 -81.87645873 246.90476504 -96 238 C-96 237.34 -96 236.68 -96 236 C-96.8971875 235.814375 -96.8971875 235.814375 -97.8125 235.625 C-100 235 -100 235 -103 233 C-103 232.01 -103 231.02 -103 230 C-104.32 229.34 -105.64 228.68 -107 228 C-107 227.34 -107 226.68 -107 226 C-107.928125 225.566875 -107.928125 225.566875 -108.875 225.125 C-111 224 -111 224 -113 222 C-113 221.01 -113 220.02 -113 219 C-113.5775 218.484375 -114.155 217.96875 -114.75 217.4375 C-122.88575788 208.6237623 -124.08041516 193.03501806 -125 182 C-112.79 182 -100.58 182 -88 182 C-87.34 185.96 -86.68 189.92 -86 194 C-83.29447503 201.01432401 -79.54158851 205.73311417 -72.73046875 209.1328125 C-66.39671267 211.14439168 -58.35715626 211.38072864 -52.16015625 208.83203125 C-47.97338187 206.12212238 -44.96017344 203.02583589 -42 199 C-41.34 199 -40.68 199 -40 199 C-38.70200771 192.12139886 -38.91416977 185.29488774 -38.98510742 178.31640625 C-38.99518475 176.93086671 -39.00463859 175.54532251 -39.01351929 174.15977478 C-39.0277566 171.95020496 -39.04239909 169.74064509 -39.05887926 167.53109074 C-39.09942847 162.04805742 -39.12001216 156.56520343 -39.1287384 151.08203125 C-39.13002202 150.28333555 -39.13130563 149.48463985 -39.13262814 148.66174126 C-39.13750494 145.36936506 -39.14167988 142.07698844 -39.14541471 138.78461075 C-39.15669594 129.47035287 -39.18735927 120.1571199 -39.27758789 110.84326172 C-39.34929466 103.42800087 -39.37797405 96.01394561 -39.35742456 88.59834766 C-39.34814488 84.68285292 -39.35958735 80.77005307 -39.42339134 76.85501099 C-39.85984967 48.6801721 -39.85984967 48.6801721 -32.1809082 39.8203125 C-30.65330886 38.25217748 -29.09342512 36.77632753 -27.44562721 35.33564758 C-25.20697253 33.26730404 -23.5123608 30.84935244 -21.75 28.375 C-17.37686703 22.48746728 -12.94358902 16.64703208 -8.5 10.8125 C-7.78038086 9.86616699 -7.06076172 8.91983398 -6.31933594 7.94482422 C-5.64676758 7.06197754 -4.97419922 6.17913086 -4.28125 5.26953125 C-3.67345703 4.47135986 -3.06566406 3.67318848 -2.43945312 2.85083008 C-1 1 -1 1 0 0 Z " fill="#A8A9A8" transform="translate(516,305)"/>
<path d="M0 0 C6.40172643 -0.11578685 12.79971455 -0.21501867 19.20166016 -0.2746582 C21.37203385 -0.29955886 23.54232587 -0.33349228 25.71240234 -0.37719727 C45.92591382 -0.77363208 64.66725651 1.59080449 80.10546875 16.1171875 C80.73066406 16.73851562 81.35585938 17.35984375 82 18 C82.65613281 18.62132812 83.31226563 19.24265625 83.98828125 19.8828125 C95.23346217 31.36818175 100.92005261 47.22055331 101.3125 63.125 C100.70470611 81.52899914 94.65968946 97.12276585 81.703125 110.34375 C73.65801539 117.77854095 65.15310109 122.02336874 55 126 C55.82242188 127.00417969 56.64484375 128.00835937 57.4921875 129.04296875 C63.55422424 136.46277754 69.53952909 143.9213488 75.3515625 151.5390625 C78.4752276 155.63272046 81.646198 159.68929662 84.8125 163.75 C89.68366676 170.00775628 94.54269073 176.27467589 99.375 182.5625 C99.94065674 183.29500977 100.50631348 184.02751953 101.08911133 184.78222656 C105 189.88407789 105 189.88407789 105 191 C98.65204304 191.35760364 92.30670746 191.60114178 85.95092773 191.76904297 C83.79401671 191.8390736 81.63776156 191.93434521 79.4831543 192.05615234 C62.17082058 193.00971296 62.17082058 193.00971296 57.02444458 189.74786377 C53.61734709 186.58127092 51.28721429 182.8455626 49.03842163 178.80462646 C47.54559448 176.21030898 45.71595413 173.93463233 43.84765625 171.6015625 C42.58469638 169.94365306 41.32297648 168.2847983 40.0625 166.625 C39.38646729 165.73651367 38.71043457 164.84802734 38.01391602 163.93261719 C34.31281447 159.0630456 30.62529692 154.18366139 26.96289062 149.28491211 C25.96126515 147.94871679 24.95489211 146.61606457 23.94335938 145.28735352 C21.89414328 142.58947737 19.95669264 139.9304318 18.1640625 137.05078125 C16.45677827 134.20516236 16.45677827 134.20516236 13 131 C8.71 130.67 4.42 130.34 0 130 C0 117.13 0 104.26 0 91 C4.62515625 90.96132813 4.62515625 90.96132813 9.34375 90.921875 C12.34904891 90.88339934 15.35417946 90.83825685 18.359375 90.79248047 C20.43871952 90.76435501 22.51816929 90.74309879 24.59765625 90.72900391 C27.59689892 90.70745762 30.59488745 90.66074724 33.59375 90.609375 C34.51490601 90.60814636 35.43606201 90.60691772 36.38513184 90.60565186 C43.47559084 90.44682791 48.71210683 88.71760374 54.20703125 84.17578125 C60.32475356 77.07565098 62.71332308 70.18479041 62.41015625 60.7734375 C61.32835287 53.45838609 57.62487066 47.84176306 51.94140625 43.25390625 C45.72350676 39.23791885 41.04033238 38.53802481 33.7890625 38.48828125 C32.33685806 38.46135445 32.33685806 38.46135445 30.85531616 38.43388367 C27.77858773 38.37992205 24.7020132 38.34593011 21.625 38.3125 C19.53253074 38.27931447 17.44008174 38.24482367 15.34765625 38.20898438 C10.2317504 38.12175838 5.11653575 38.06156827 0 38 C0 25.46 0 12.92 0 0 Z " fill="#D2D2D2" transform="translate(530,355)"/>
<path d="M0 0 C2.58381296 2.34146912 5.11485543 4.72940242 7.64453125 7.12890625 C9.01420011 8.3018271 10.38887457 9.46893933 11.76953125 10.62890625 C26.37669206 23.43234882 37.41563106 40.19405288 46.64453125 57.12890625 C47.00530762 57.78858398 47.36608398 58.44826172 47.73779297 59.12792969 C71.92359507 103.93131965 75.90589803 156.38092863 61.59765625 204.98828125 C58.82303726 213.93740447 55.4826999 222.58546189 51.64453125 231.12890625 C51.17926025 232.17498047 51.17926025 232.17498047 50.70458984 233.2421875 C41.29499914 254.06171552 27.20015498 271.59523433 11.64453125 288.12890625 C10.9896875 288.83789062 10.33484375 289.546875 9.66015625 290.27734375 C5.50725531 294.62546653 0.97156723 298.39670615 -3.73046875 302.12890625 C-4.35026611 302.62269775 -4.97006348 303.11648926 -5.60864258 303.62524414 C-10.10750108 307.12890625 -10.10750108 307.12890625 -12.35546875 307.12890625 C-11.2037352 304.66090578 -10.3076331 303.0810706 -8.35546875 301.12890625 C-8.67398645 299.02069828 -8.67398645 299.02069828 -9.35546875 297.12890625 C-8.80761719 296.72542969 -8.25976562 296.32195312 -7.6953125 295.90625 C20.98508268 273.94126443 40.73420155 242.91790318 52.64453125 209.12890625 C53.22654297 207.52402344 53.22654297 207.52402344 53.8203125 205.88671875 C69.54672032 159.13253333 63.14400723 106.70317586 41.65283203 63.11767578 C19.56950658 20.24465669 -19.83285287 -13.54487109 -65.50415039 -28.86230469 C-67.77867006 -29.56873883 -70.06304589 -30.22511737 -72.35546875 -30.87109375 C-73.74596436 -31.27932373 -73.74596436 -31.27932373 -75.16455078 -31.69580078 C-91.83687029 -36.40287365 -107.87254218 -37.43670031 -125.10546875 -37.43359375 C-126.57214493 -37.43767242 -126.57214493 -37.43767242 -128.06845093 -37.4418335 C-140.48123755 -37.43792408 -152.22342561 -36.50853041 -164.35546875 -33.87109375 C-165.26586914 -33.68329346 -166.17626953 -33.49549316 -167.11425781 -33.30200195 C-190.78412766 -28.1868185 -215.428456 -17.01884908 -234.35546875 -1.87109375 C-235.6084375 -0.90236328 -235.6084375 -0.90236328 -236.88671875 0.0859375 C-253.15966769 12.81801329 -267.88689415 27.06434724 -279.16796875 44.44140625 C-281.35546875 47.12890625 -281.35546875 47.12890625 -284.04296875 47.50390625 C-285.18765625 47.31828125 -285.18765625 47.31828125 -286.35546875 47.12890625 C-287.34546875 47.62390625 -287.34546875 47.62390625 -288.35546875 48.12890625 C-287.41256823 43.53407705 -285.06141329 40.36819908 -282.41796875 36.56640625 C-281.68296143 35.50329224 -281.68296143 35.50329224 -280.93310547 34.41870117 C-275.16690705 26.23092184 -268.42746558 19.20090308 -261.35546875 12.12890625 C-260.14890625 10.87013672 -260.14890625 10.87013672 -258.91796875 9.5859375 C-198.48395224 -52.78270454 -98.49965086 -61.1199976 0 0 Z " fill="#75E8EB" transform="translate(636.35546875,298.87109375)"/>
<path d="M0 0 C-0.47308594 0.86238281 -0.94617188 1.72476562 -1.43359375 2.61328125 C-13.04293766 23.95949424 -22.47945874 45.02982999 -27 69 C-27.226875 70.12664062 -27.45375 71.25328125 -27.6875 72.4140625 C-32.88409517 103.23275886 -28.96351689 137.94388818 -18 167 C-17.52136499 168.33696402 -17.04344752 169.67418524 -16.56640625 171.01171875 C-8.16184269 193.41595192 4.92223514 213.36907527 21 231 C21.4527832 231.49806152 21.90556641 231.99612305 22.37207031 232.50927734 C33.52101717 244.59712424 46.85300378 254.66517912 61 263 C62.68029297 263.99966797 62.68029297 263.99966797 64.39453125 265.01953125 C88.19904008 279.01759623 117.21350921 289.05657238 145.0546875 289.203125 C145.91450226 289.20882507 146.77431702 289.21452515 147.66018677 289.22039795 C149.47722156 289.229807 151.29427309 289.23636556 153.11132812 289.24023438 C155.83235323 289.2498493 158.55259209 289.28087375 161.2734375 289.3125 C200.76663584 289.55136743 239.76921487 274.82889426 271 251 C271.99 252.32 272.98 253.64 274 255 C273.401875 255.391875 272.80375 255.78375 272.1875 256.1875 C269.87506728 257.88314845 269.87506728 257.88314845 268.63623047 260.42480469 C266.85557444 263.2273054 265.458074 264.32860259 262.6328125 266.015625 C261.32002319 266.80259766 261.32002319 266.80259766 259.98071289 267.60546875 C259.03832764 268.14816406 258.09594238 268.69085937 257.125 269.25 C256.14845459 269.81847656 255.17190918 270.38695312 254.16577148 270.97265625 C239.89943135 279.10191253 224.73258164 285.33025845 209 290 C208.06027344 290.28359375 207.12054687 290.5671875 206.15234375 290.859375 C203.1167347 291.6961955 200.08595532 292.37216771 197 293 C196.34547852 293.13680176 195.69095703 293.27360352 195.01660156 293.41455078 C155.63770672 301.29210597 113.08944085 296.32100169 77 279 C75.46096042 278.32729076 73.91953739 277.65998849 72.375 277 C67.07328932 274.67001169 62.04730143 271.83026248 57 269 C57 268.34 57 267.68 57 267 C56.11622681 266.81800049 56.11622681 266.81800049 55.21459961 266.63232422 C52.96056629 265.98874068 51.49473723 265.19505366 49.56640625 263.8828125 C48.92396973 263.44638428 48.2815332 263.00995605 47.61962891 262.56030273 C46.94077637 262.08665283 46.26192383 261.61300293 45.5625 261.125 C44.85528809 260.63394775 44.14807617 260.14289551 43.41943359 259.63696289 C28.74952182 249.29947058 16.06509021 237.13981439 5 223 C4.28199219 222.11054687 3.56398438 221.22109375 2.82421875 220.3046875 C-14.69030182 197.96822965 -25.92107927 171.3308514 -32.25 143.8125 C-32.40122314 143.1613623 -32.55244629 142.51022461 -32.70825195 141.83935547 C-35.58338231 128.49134769 -36.40944685 115.10796202 -36.375 101.5 C-36.37478851 100.71996613 -36.37457703 99.93993225 -36.37435913 99.13626099 C-36.33755351 85.44230198 -35.09025638 72.3719272 -32 59 C-31.80744629 58.14148438 -31.61489258 57.28296875 -31.41650391 56.3984375 C-27.55026482 39.49938747 -20.98595388 24.32636224 -13 9 C-12.49984375 8.01902344 -11.9996875 7.03804688 -11.484375 6.02734375 C-11.05640625 5.21394531 -10.6284375 4.40054687 -10.1875 3.5625 C-9.83042969 2.88316406 -9.47335937 2.20382812 -9.10546875 1.50390625 C-6.62379761 -1.8722188 -3.55563849 -0.86488504 0 0 Z " fill="#2A6F99" transform="translate(355,346)"/>
<path d="M0 0 C4.3924631 -0.07482575 8.78457672 -0.12891683 13.17749023 -0.16479492 C14.66811598 -0.17977042 16.15869851 -0.20015819 17.64916992 -0.22631836 C28.46894096 -0.41130271 38.25475238 -0.48624254 46.55859375 7.3359375 C50.38108908 11.74889959 51.41846119 16.37106514 51.15625 22.01953125 C51.1046875 22.67308594 51.053125 23.32664062 51 24 C50.9175 25.216875 50.835 26.43375 50.75 27.6875 C49.88763358 31.49628504 48.66283301 33.18500511 46 36 C45.319375 36.763125 44.63875 37.52625 43.9375 38.3125 C42 40 42 40 39 40 C40.76555157 42.60778373 42.53834886 45.21056081 44.3125 47.8125 C44.81201172 48.55048828 45.31152344 49.28847656 45.82617188 50.04882812 C46.31279297 50.76103516 46.79941406 51.47324219 47.30078125 52.20703125 C47.96847534 53.18893433 47.96847534 53.18893433 48.6496582 54.19067383 C49.97589532 55.96770208 51.39340935 57.47590438 53 59 C49.06260347 60.31246551 44.99263982 61.36952618 41 60 C37.24121028 56.08892045 34.3094368 51.51583596 31.80859375 46.7109375 C30.68398928 44.49894075 30.68398928 44.49894075 28 42 C23.93587968 41.42322603 20.07459401 41.59059103 16 42 C15.87882812 43.14339844 15.75765625 44.28679688 15.6328125 45.46484375 C15.46402679 46.95578417 15.29472953 48.44666673 15.125 49.9375 C15.00705078 51.06961914 15.00705078 51.06961914 14.88671875 52.22460938 C14.66116192 54.15919299 14.33741026 56.08176019 14 58 C10.78548731 59.60725635 7.56387464 59.05748185 4 59 C1.39202373 55.06683253 1.54468862 50.74434653 1.375 46.1875 C1.31699219 44.88135742 1.31699219 44.88135742 1.2578125 43.54882812 C0.94920569 35.77303862 0.93414674 28.00001862 1.03662109 20.21948242 C1.10123056 13.43000278 0.66031267 6.75641354 0 0 Z " fill="#163755" transform="translate(291,677)"/>
<path d="M0 0 C-0.8125 2.4375 -0.8125 2.4375 -2 5 C-6.1607729 6.3869243 -8.55417949 4.64650809 -12.3125 2.875 C-13.7825733 2.21458927 -15.25394958 1.55707195 -16.7265625 0.90234375 C-17.4577832 0.5760498 -18.18900391 0.24975586 -18.94238281 -0.08642578 C-24.20623765 -2.42355734 -29.46814237 -4.3988903 -35 -6 C-35.89025879 -6.26232422 -36.78051758 -6.52464844 -37.69775391 -6.79492188 C-54.41299005 -11.49243753 -70.47708646 -12.57133109 -87.75 -12.5625 C-88.72751221 -12.56512848 -89.70502441 -12.56775696 -90.7121582 -12.57046509 C-103.12531406 -12.56668599 -114.86758467 -11.63751757 -127 -9 C-127.91040039 -8.81219971 -128.82080078 -8.62439941 -129.75878906 -8.4309082 C-153.42865891 -3.31572475 -178.07298725 7.85224467 -197 23 C-198.25296875 23.96873047 -198.25296875 23.96873047 -199.53125 24.95703125 C-215.80419894 37.68910704 -230.5314254 51.93544099 -241.8125 69.3125 C-244 72 -244 72 -246.6875 72.375 C-247.8321875 72.189375 -247.8321875 72.189375 -249 72 C-249.99 72.495 -249.99 72.495 -251 73 C-250.05709948 68.4051708 -247.70594454 65.23929283 -245.0625 61.4375 C-244.32749268 60.37438599 -244.32749268 60.37438599 -243.57763672 59.28979492 C-237.8114383 51.10201559 -231.07199683 44.07199683 -224 37 C-222.7934375 35.74123047 -222.7934375 35.74123047 -221.5625 34.45703125 C-165.2372633 -23.67129992 -71.42720027 -36.33388637 0 0 Z " fill="#68DFE6" transform="translate(599,274)"/>
<path d="M0 0 C3.84061019 1.61854287 6.67023164 4.20801688 9.75 6.9375 C21.74196516 17.28694181 34.98897092 25.66051534 49 33 C49.89460938 33.46921875 50.78921875 33.9384375 51.7109375 34.421875 C71.93363527 44.24615089 96.54104971 51.08461591 119.0546875 51.203125 C119.91450226 51.20882507 120.77431702 51.21452515 121.66018677 51.22039795 C123.47722156 51.229807 125.29427309 51.23636556 127.11132812 51.24023438 C129.83235323 51.2498493 132.55259209 51.28087375 135.2734375 51.3125 C174.76663584 51.55136743 213.76921487 36.82889426 245 13 C245.99 14.32 246.98 15.64 248 17 C247.401875 17.391875 246.80375 17.78375 246.1875 18.1875 C243.87506728 19.88314845 243.87506728 19.88314845 242.63623047 22.42480469 C240.85557444 25.2273054 239.458074 26.32860259 236.6328125 28.015625 C235.75761963 28.54027344 234.88242676 29.06492187 233.98071289 29.60546875 C233.03832764 30.14816406 232.09594238 30.69085937 231.125 31.25 C230.14845459 31.81847656 229.17190918 32.38695312 228.16577148 32.97265625 C213.89943135 41.10191253 198.73258164 47.33025845 183 52 C182.06027344 52.28359375 181.12054687 52.5671875 180.15234375 52.859375 C177.1167347 53.6961955 174.08595532 54.37216771 171 55 C170.34547852 55.13680176 169.69095703 55.27360352 169.01660156 55.41455078 C129.63770672 63.29210597 87.08944085 58.32100169 51 41 C49.46096042 40.32729076 47.91953739 39.65998849 46.375 39 C41.07328932 36.67001169 36.04730143 33.83026248 31 31 C31 30.34 31 29.68 31 29 C30.41299316 28.88084229 29.82598633 28.76168457 29.22119141 28.63891602 C26.91554234 27.97570612 25.42638642 27.13531486 23.4609375 25.77734375 C22.8023877 25.32520508 22.14383789 24.87306641 21.46533203 24.40722656 C20.43061768 23.67971191 20.43061768 23.67971191 19.375 22.9375 C18.66585449 22.44088867 17.95670898 21.94427734 17.22607422 21.43261719 C15.14392745 19.96437003 13.07121218 18.48361606 11 17 C9.94296875 16.25363281 8.8859375 15.50726562 7.796875 14.73828125 C0.69232366 9.45141483 0.69232366 9.45141483 -0.6875 5.125 C-1 2 -1 2 0 0 Z " fill="#338AB3" transform="translate(381,584)"/>
<path d="M0 0 C5.61491893 2.96637227 9.25771677 5.58565032 11.3125 11.75 C11.93237875 18.41581941 12.51734605 25.188752 8.3125 30.75 C3.29101965 35.86851378 -0.35200849 37.84910539 -7.5625 38.0625 C-8.79613281 38.11857422 -8.79613281 38.11857422 -10.0546875 38.17578125 C-12.6875 37.75 -12.6875 37.75 -18.6875 33.75 C-19.0175 39.36 -19.3475 44.97 -19.6875 50.75 C-22.9875 50.75 -26.2875 50.75 -29.6875 50.75 C-29.6875 33.92 -29.6875 17.09 -29.6875 -0.25 C-26.7175 -0.25 -23.7475 -0.25 -20.6875 -0.25 C-20.6875 1.07 -20.6875 2.39 -20.6875 3.75 C-20.130625 3.3890625 -19.57375 3.028125 -19 2.65625 C-12.14195765 -1.51418116 -7.84442802 -2.65912814 0 0 Z " fill="#A6A7A6" transform="translate(603.6875,697.25)"/>
<path d="M0 0 C12.54 0 25.08 0 38 0 C38 2.64 38 5.28 38 8 C28.76 8 19.52 8 10 8 C10 12.62 10 17.24 10 22 C18.25 22 26.5 22 35 22 C35 24.64 35 27.28 35 30 C26.75 30 18.5 30 10 30 C10 34.29 10 38.58 10 43 C19.57 43 29.14 43 39 43 C39 45.64 39 48.28 39 51 C26.13 51 13.26 51 0 51 C0 34.17 0 17.34 0 0 Z " fill="#7D7E7D" transform="translate(373,683)"/>
<path d="M0 0 C15.87782436 4.75863579 30.90001919 17.86961303 42.83984375 28.9921875 C44.86538639 30.87487994 46.94704391 32.65737061 49.0625 34.4375 C63.68751123 47.28182124 74.75056288 64.02746175 84 81 C84.36077637 81.65967773 84.72155273 82.31935547 85.09326172 82.99902344 C99 108.76079126 99 108.76079126 99 119 C98.34 119 97.68 119 97 119 C95.70323188 123.61073111 96.28890861 127.33840089 97 132 C94.60181985 128.40272978 93.64138973 124.72458742 92.4375 120.625 C78.11242051 73.79509503 45.98357245 31.79580898 2.421875 8.62890625 C0.62916433 7.72314858 -1.18264094 6.85522779 -3 6 C-1.125 1.125 -1.125 1.125 0 0 Z " fill="#79EDE9" transform="translate(599,275)"/>
<path d="M0 0 C5.02771077 2.80391562 8.94929623 6.48455444 11.25 11.8125 C11.25 14.7825 11.25 17.7525 11.25 20.8125 C1.68 20.8125 -7.89 20.8125 -17.75 20.8125 C-15.82808192 26.00162088 -15.82808192 26.00162088 -11.75 28.8125 C-5.83042413 29.80886425 -0.86281717 29.04164769 4.25 25.8125 C6.3125 28.125 6.3125 28.125 8.25 30.8125 C7.25 33.8125 7.25 33.8125 4 36 C-1.72308208 38.65567478 -7.57853239 38.70624562 -13.75 37.8125 C-19.8774084 35.45059218 -23.83897181 31.25235074 -27 25.5625 C-28.78540165 19.01602729 -28.29960101 13.45613653 -24.94921875 7.53125 C-18.95758651 -1.05610566 -9.46822882 -2.99827246 0 0 Z " fill="#919393" transform="translate(524.75,697.1875)"/>
<path d="M0 0 C3.83650293 2.74416529 5.60962708 6.05128542 7.6875 10.20703125 C8.1825 14.66203125 8.1825 14.66203125 8.6875 19.20703125 C-1.2125 19.20703125 -11.1125 19.20703125 -21.3125 19.20703125 C-18.97401858 25.12434143 -18.97401858 25.12434143 -15.3125 27.20703125 C-9.41060318 27.83706105 -3.80944604 27.584089 1.6875 25.20703125 C2.6775 26.52703125 3.6675 27.84703125 4.6875 29.20703125 C3.73026125 31.98302363 2.73404399 33.17180877 0.375 34.95703125 C-6.1326494 37.1630141 -13.09867093 37.1592769 -19.6875 35.20703125 C-23.89055855 32.00470093 -27.92829315 27.97544494 -30.3125 23.20703125 C-31.18813864 15.48145992 -31.06425275 9.27760016 -26.140625 3.01953125 C-18.83983316 -4.21886066 -8.8581508 -5.05414652 0 0 Z " fill="#CECFCF" transform="translate(739.3125,698.79296875)"/>
<path d="M0 0 C1.85772162 0.08984301 3.71247985 0.24611861 5.5625 0.4375 C6.57441406 0.53933594 7.58632813 0.64117188 8.62890625 0.74609375 C9.41136719 0.82988281 10.19382812 0.91367187 11 1 C11.24548372 7.40382281 11.45755091 13.80814287 11.64697266 20.21386719 C11.71521639 22.39055113 11.79096485 24.56701377 11.87451172 26.74316406 C11.99363558 29.88057095 12.0852905 33.01779662 12.171875 36.15625 C12.21439392 37.12115356 12.25691284 38.08605713 12.30072021 39.0802002 C12.47481841 46.96448436 10.63043222 52.05642108 5.375 57.9375 C0.94822296 60.64275263 -2.89214541 60.88895968 -8 61 C-8.33 60.34 -8.66 59.68 -9 59 C-10.82153078 58.53260651 -10.82153078 58.53260651 -13 58.25 C-18.4438779 57.16646732 -22.8197452 54.63672286 -27 51 C-27 50.34 -27 49.68 -27 49 C-26.34 49 -25.68 49 -25 49 C-25 48.01 -25 47.02 -25 46 C-23.125 43.8125 -23.125 43.8125 -21 42 C-20.34 42 -19.68 42 -19 42 C-18.67 42.66 -18.34 43.32 -18 44 C-13.56833097 46.30573711 -9.00402569 47.69823614 -4 47 C-2.22809091 45.64555699 -2.22809091 45.64555699 -1 44 C-0.01 43.505 -0.01 43.505 1 43 C0.9278125 42.12859375 0.855625 41.2571875 0.78125 40.359375 C0.25660538 33.62643569 -0.04706007 26.9891547 0.03515625 20.23828125 C-0.01591413 15.53413191 -0.36115899 10.85529805 -0.73242188 6.16650391 C-0.85897275 4.44667754 -0.93429282 2.72322384 -1 1 C-0.67 0.67 -0.34 0.34 0 0 Z " fill="#112D48" transform="translate(268,677)"/>
<path d="M0 0 C0.66 0 1.32 0 2 0 C2.51046875 1.17755859 2.51046875 1.17755859 3.03125 2.37890625 C8.05320028 13.26425062 13.78827324 18.82155554 25 23 C25 23.66 25 24.32 25 25 C24.21496094 25.3403125 23.42992187 25.680625 22.62109375 26.03125 C11.73574938 31.05320028 6.17844446 36.78827324 2 48 C1.34 48 0.68 48 0 48 C-0.3403125 47.21496094 -0.680625 46.42992187 -1.03125 45.62109375 C-6.05320028 34.73574938 -11.78827324 29.17844446 -23 25 C-23 24.34 -23 23.68 -23 23 C-22.21496094 22.6596875 -21.42992187 22.319375 -20.62109375 21.96875 C-9.73574938 16.94679972 -4.17844446 11.21172676 0 0 Z " fill="#969A9E" transform="translate(967,944)"/>
<path d="M0 0 C3.84546047 2.13636693 6.52360394 3.86364187 8.375 7.875 C8.99328096 12.83863214 8.8462977 17.76195464 8.6875 22.75 C8.66239222 24.11975108 8.63958339 25.48954635 8.61914062 26.859375 C8.5603436 30.19904622 8.47819834 33.53645431 8.375 36.875 C5.405 36.875 2.435 36.875 -0.625 36.875 C-0.64481934 36.13338623 -0.66463867 35.39177246 -0.68505859 34.62768555 C-0.78022928 31.27226166 -0.88994094 27.91746714 -1 24.5625 C-1.0309375 23.39525391 -1.061875 22.22800781 -1.09375 21.02539062 C-1.13242187 19.90712891 -1.17109375 18.78886719 -1.2109375 17.63671875 C-1.2423584 16.60506592 -1.2737793 15.57341309 -1.30615234 14.51049805 C-1.45174629 11.64656764 -1.45174629 11.64656764 -3.625 8.875 C-5.67765612 8.21833483 -5.67765612 8.21833483 -8 8.0625 C-9.15628906 7.92908203 -9.15628906 7.92908203 -10.3359375 7.79296875 C-13.02489559 7.88933073 -14.40971841 8.35258308 -16.625 9.875 C-18.65065776 13.0865305 -18.91915787 15.75861336 -19.0390625 19.515625 C-19.09707031 21.12050781 -19.09707031 21.12050781 -19.15625 22.7578125 C-19.20265625 24.42457031 -19.20265625 24.42457031 -19.25 26.125 C-19.30800781 27.81496094 -19.30800781 27.81496094 -19.3671875 29.5390625 C-19.46137336 32.31754548 -19.54699586 35.09602334 -19.625 37.875 C-22.595 37.875 -25.565 37.875 -28.625 37.875 C-28.625 25.335 -28.625 12.795 -28.625 -0.125 C-25.655 -0.125 -22.685 -0.125 -19.625 -0.125 C-19.295 0.865 -18.965 1.855 -18.625 2.875 C-18.12871094 2.58625 -17.63242187 2.2975 -17.12109375 2 C-11.03344622 -1.32683584 -6.80697079 -2.11250818 0 0 Z " fill="#828381" transform="translate(450.625,697.125)"/>
<path d="M0 0 C20.62260916 -0.75040283 39.01798613 0.16027549 59 6 C60.48506891 6.40069837 61.97068868 6.79936479 63.45703125 7.1953125 C79.24257728 11.5786924 94.46503952 18.81617675 108 28 C108.56380371 28.37737305 109.12760742 28.75474609 109.70849609 29.14355469 C117.50671683 34.39107605 124.5694357 40.07577378 131.37890625 46.5546875 C133.89113668 48.9818704 133.89113668 48.9818704 136.40234375 50.8203125 C148.59498371 61.05112919 158.66664573 76.20624883 166.02441406 90.17822266 C167.07179441 92.13406653 168.16902064 94.05630241 169.2734375 95.98046875 C175.08811184 106.27716215 178.84198619 116.6296688 182 128 C182.39426332 129.37117082 182.78878199 130.74226825 183.18359375 132.11328125 C187.02546753 145.89055023 188.37944198 158.77500852 188.3125 173 C188.30926727 174.23221283 188.30926727 174.23221283 188.30596924 175.48931885 C188.25377392 187.88314193 187.8004389 199.87962122 185 212 C184.79068848 212.92409668 184.58137695 213.84819336 184.36572266 214.80029297 C180.55542923 231.24145292 175.57707421 246.37030959 167 261 C165.81637741 257.44913223 166.49110213 256.49227059 168.09619141 253.26953125 C168.41507324 252.64433594 168.73395508 252.01914062 169.0625 251.375 C179.99872091 228.78992222 184.69125344 204.97396376 186 180 C186.06058594 178.85273438 186.12117187 177.70546875 186.18359375 176.5234375 C186.84822366 148.13983084 178.19967133 119.65781191 165.2890625 94.69140625 C164 92 164 92 164 90 C163.34 90 162.68 90 162 90 C161.525625 88.948125 161.05125 87.89625 160.5625 86.8125 C154.59526952 74.9200618 145.52462906 62.13813079 135 54 C133.33333333 52.33333333 131.66666667 50.66666667 130 49 C129.236875 48.443125 128.47375 47.88625 127.6875 47.3125 C127.130625 46.879375 126.57375 46.44625 126 46 C126 45.34 126 44.68 126 44 C125.46890625 43.7628125 124.9378125 43.525625 124.390625 43.28125 C121.3044757 41.62723534 118.56285332 39.57052307 115.75 37.5 C104.82802233 29.59989044 93.60162137 21.94212389 81 17 C80.30503418 16.72559082 79.61006836 16.45118164 78.89404297 16.16845703 C69.07510437 12.32340748 59.39577406 8.93012021 49 7 C48.31631348 6.87141602 47.63262695 6.74283203 46.92822266 6.61035156 C35.19204212 4.41739631 23.97109008 2.84011316 12 2.9375 C10.40865234 2.94426758 10.40865234 2.94426758 8.78515625 2.95117188 C6.19004402 2.96286157 3.59505291 2.97924724 1 3 C0.67 2.01 0.34 1.02 0 0 Z " fill="#6A7A82" transform="translate(499,272)"/>
<path d="M0 0 C-0.66 2.31 -1.32 4.62 -2 7 C-2.7425 6.835 -3.485 6.67 -4.25 6.5 C-9.50409401 5.79945413 -14.70751749 5.92292501 -20 6 C-20.66 7.65 -21.32 9.3 -22 11 C-20.83082031 11.24234375 -19.66164063 11.4846875 -18.45703125 11.734375 C-16.90869622 12.07219355 -15.36052764 12.41077563 -13.8125 12.75 C-12.65911133 12.98589844 -12.65911133 12.98589844 -11.48242188 13.2265625 C-6.73996098 14.28496579 -3.55792249 15.49043762 0 19 C1.43304064 21.86608129 1.30644155 23.81300783 1 27 C-1.10890072 31.30215748 -3.29163142 33.87011419 -7.8828125 35.53515625 C-15.02099719 37.10239606 -22.12260211 36.21059218 -29 34 C-29.99 33.34 -30.98 32.68 -32 32 C-31.34 29.69 -30.68 27.38 -30 25 C-29.236875 25.309375 -28.47375 25.61875 -27.6875 25.9375 C-23.28234302 27.67907369 -20.04848152 28.10939091 -15.3125 28.0625 C-14.13300781 28.05347656 -12.95351563 28.04445313 -11.73828125 28.03515625 C-10.83464844 28.02355469 -9.93101562 28.01195312 -9 28 C-9.47909162 24.99092692 -9.47909162 24.99092692 -11 22 C-14.13303557 20.76292942 -14.13303557 20.76292942 -17.8125 20.375 C-23.08361221 19.60849475 -26.12351127 18.74034587 -30 15 C-31.65804661 11.68390678 -31.90361815 8.53811049 -31 5 C-22.66383463 -5.1584899 -11.39975717 -4.72878816 0 0 Z " fill="#C2C4C1" transform="translate(703,699)"/>
<path d="M0 0 C-0.66 2.31 -1.32 4.62 -2 7 C-2.56847656 6.855625 -3.13695312 6.71125 -3.72265625 6.5625 C-8.56449272 5.39851928 -12.98399074 4.59871926 -18 5 C-18.99 5.66 -19.98 6.32 -21 7 C-20.67 8.32 -20.34 9.64 -20 11 C-18.97519531 11.24234375 -17.95039062 11.4846875 -16.89453125 11.734375 C-15.533686 12.07224003 -14.17301803 12.41081969 -12.8125 12.75 C-11.80219727 12.98589844 -11.80219727 12.98589844 -10.77148438 13.2265625 C-6.31706639 14.35646365 -3.32178958 15.82209208 0 19 C1.43304064 21.86608129 1.30644155 23.81300783 1 27 C-0.92461765 31.0898125 -2.45626962 32.7034198 -6.4375 34.875 C-13.65051298 37.12653863 -21.97701385 37.41167248 -28.8125 34 C-29.864375 33.34 -30.91625 32.68 -32 32 C-31.01 29.69 -30.02 27.38 -29 25 C-27.88625 25.495 -26.7725 25.99 -25.625 26.5 C-20.77636148 28.33555601 -16.13328785 28.49615422 -11 28 C-10.34 27.67 -9.68 27.34 -9 27 C-8.34786708 24.97536745 -8.34786708 24.97536745 -8 23 C-9.16917969 22.75765625 -10.33835937 22.5153125 -11.54296875 22.265625 C-13.09130378 21.92780645 -14.63947236 21.58922437 -16.1875 21.25 C-17.34088867 21.01410156 -17.34088867 21.01410156 -18.51757812 20.7734375 C-23.26003902 19.71503421 -26.44207751 18.50956238 -30 15 C-31.60127074 11.79745853 -31.40701607 9.54685436 -31 6 C-24.13066089 -5.47963381 -11.11400106 -5.12953895 0 0 Z " fill="#CFD1CF" transform="translate(784,699)"/>
<path d="M0 0 C5.61491893 2.96637227 9.25771677 5.58565032 11.3125 11.75 C11.93237875 18.41581941 12.51734605 25.188752 8.3125 30.75 C3.20712013 35.95403456 -0.41848776 37.86730295 -7.75 38 C-8.60722656 38.02578125 -9.46445312 38.0515625 -10.34765625 38.078125 C-13.12608273 37.68849591 -13.96207227 36.89971323 -15.6875 34.75 C-15.0275 33.43 -14.3675 32.11 -13.6875 30.75 C-14.285625 30.481875 -14.88375 30.21375 -15.5 29.9375 C-17.65974808 28.76506533 -19.04540256 27.55630718 -20.6875 25.75 C-20.3575 24.76 -20.0275 23.77 -19.6875 22.75 C-18.759375 23.9565625 -18.759375 23.9565625 -17.8125 25.1875 C-15.56998673 27.89170718 -14.86147061 28.62524006 -11.4453125 28.98828125 C-5.94201816 29.25297575 -5.94201816 29.25297575 -1.125 26.9375 C1.52709402 22.90170476 1.63917307 19.48675955 1.3125 14.75 C0.07293745 11.96098427 -0.97200754 10.30649413 -3.375 8.4375 C-6.86978497 7.39850987 -10.11746686 7.08283675 -13.6875 7.75 C-17.70427547 10.45695738 -18.9529987 12.98457709 -20 17.5625 C-20.24763717 18.95517508 -20.48318833 20.35031261 -20.6875 21.75 C-22.6875 19.75 -22.6875 19.75 -22.76953125 17.7265625 C-22.24290342 13.13192545 -21.7635303 10.33870202 -18.6875 6.75 C-18.5328125 5.4815625 -18.5328125 5.4815625 -18.375 4.1875 C-17.6875 1.75 -17.6875 1.75 -15.125 -0.0625 C-9.52640133 -1.99656136 -5.49227544 -1.86178829 0 0 Z " fill="#B7B9B8" transform="translate(603.6875,697.25)"/>
<path d="M0 0 C2.97 0 5.94 0 9 0 C9 2.97 9 5.94 9 9 C12.3 9 15.6 9 19 9 C19 11.31 19 13.62 19 16 C15.7 16 12.4 16 9 16 C9.0866394 19.45960097 9.19347349 22.91649395 9.3125 26.375 C9.33505859 27.35984375 9.35761719 28.3446875 9.38085938 29.359375 C9.41630859 30.30039062 9.45175781 31.24140625 9.48828125 32.2109375 C9.51446533 33.08024902 9.54064941 33.94956055 9.56762695 34.84521484 C9.81345218 37.38600027 9.81345218 37.38600027 13 39 C16.12521833 39.16699232 16.12521833 39.16699232 19 39 C19.66 40.98 20.32 42.96 21 45 C17.25384673 47.49743551 13.34107524 47.52695133 9 47 C5.31403816 45.7481639 3.55432379 44.80533834 1.34375 41.59375 C-0.54098603 36.5531769 -0.32160886 31.95496749 -0.1875 26.625 C-0.17396484 25.60277344 -0.16042969 24.58054687 -0.14648438 23.52734375 C-0.11130217 21.01767951 -0.06207539 18.5091191 0 16 C-1.98 16 -3.96 16 -6 16 C-6 13.69 -6 11.38 -6 9 C-4.02 9 -2.04 9 0 9 C0 6.03 0 3.06 0 0 Z " fill="#929391" transform="translate(472,688)"/>
<path d="M0 0 C-0.47308594 0.86238281 -0.94617188 1.72476562 -1.43359375 2.61328125 C-14.13220065 25.96233265 -24.55159236 49.22523886 -27.875 75.8125 C-28.45687607 79.69706154 -29.09374214 81.69326148 -32.125 84.25 C-33.07375 84.8275 -34.0225 85.405 -35 86 C-36.20911963 71.6584977 -32.05296764 56.88399763 -28 43.25 C-27.7632959 42.45343994 -27.5265918 41.65687988 -27.28271484 40.83618164 C-23.81932923 29.6770358 -18.30210348 19.37117759 -13 9 C-12.49726563 8.01128906 -11.99453125 7.02257812 -11.4765625 6.00390625 C-11.05117188 5.19824219 -10.62578125 4.39257812 -10.1875 3.5625 C-9.83042969 2.88316406 -9.47335937 2.20382812 -9.10546875 1.50390625 C-6.62379761 -1.8722188 -3.55563849 -0.86488504 0 0 Z " fill="#3E8EAF" transform="translate(355,346)"/>
<path d="M0 0 C3.196875 -0.0825 6.39375 -0.165 9.6875 -0.25 C10.68612061 -0.28641602 11.68474121 -0.32283203 12.71362305 -0.36035156 C16.98285395 -0.41369006 19.36670269 -0.38848656 23.08203125 1.890625 C26.28887625 5.41750137 26.39275086 8.10784271 26.35546875 12.73828125 C25.78672178 16.35701199 23.84834388 17.88030223 21 20 C18.23434618 20.92188461 16.61716298 21.11785222 13.76953125 21.09765625 C13.04612549 21.09515869 12.32271973 21.09266113 11.57739258 21.09008789 C10.66497803 21.08098389 9.75256348 21.07187988 8.8125 21.0625 C5.904375 21.041875 2.99625 21.02125 0 21 C0 14.07 0 7.14 0 0 Z " fill="#0E1318" transform="translate(305,687)"/>
<path d="M0 0 C3.65844715 -0.34842354 5.73187299 -0.13132751 9.0625 1.5 C12.62563862 4.5324584 15.42045767 7.54792715 17 12 C17 14.97 17 17.94 17 21 C7.43 21 -2.14 21 -12 21 C-10.07808192 26.18912088 -10.07808192 26.18912088 -6 29 C-0.08042413 29.99636425 4.88718283 29.22914769 10 26 C12.0625 28.3125 12.0625 28.3125 14 31 C13 34 13 34 9.75 36.1875 C4.18775041 38.81215498 -1.98314336 38.91364034 -8 38 C-9.88671875 36.47265625 -9.88671875 36.47265625 -11 35 C-10.01 33.35 -9.02 31.7 -8 30 C-9.32 30 -10.64 30 -12 30 C-14.1951074 24.44766951 -13.84284324 21.52852971 -12 16 C-5.4 16 1.2 16 8 16 C7.34 13.69 6.68 11.38 6 9 C5.71125 7.741875 5.4225 6.48375 5.125 5.1875 C4.32431692 1.91244569 4.32431692 1.91244569 1.875 0.5625 C1.25625 0.376875 0.6375 0.19125 0 0 Z " fill="#9B9D9D" transform="translate(519,697)"/>
<path d="M0 0 C2.97 0 5.94 0 9 0 C9.33 1.32 9.66 2.64 10 4 C10.680625 3.34 11.36125 2.68 12.0625 2 C15.64457375 -0.43885872 17.75519536 -0.33292585 22 0 C22 2.64 22 5.28 22 8 C21.38511719 8.08636719 20.77023437 8.17273438 20.13671875 8.26171875 C19.32847656 8.40222656 18.52023437 8.54273438 17.6875 8.6875 C16.48673828 8.87892578 16.48673828 8.87892578 15.26171875 9.07421875 C12.11520542 10.3621698 11.50078671 11.99210304 10 15 C9.50479234 17.69442447 9.50479234 17.69442447 9.48828125 20.51953125 C9.45283203 21.54111328 9.41738281 22.56269531 9.38085938 23.61523438 C9.34702148 25.19788086 9.34702148 25.19788086 9.3125 26.8125 C9.27833984 27.88693359 9.24417969 28.96136719 9.20898438 30.06835938 C9.12673357 32.71213533 9.05750791 35.35558921 9 38 C6.03 38 3.06 38 0 38 C0 25.46 0 12.92 0 0 Z " fill="#BABBB9" transform="translate(624,697)"/>
<path d="M0 0 C0 2.64 0 5.28 0 8 C-1.953125 8.35807292 -3.90625 8.71614583 -5.859375 9.07421875 C-9.17875204 10.50978875 -10.20342167 11.81658927 -12 15 C-12.62475828 18.93320546 -12.69655085 22.83539745 -12.75 26.8125 C-12.77964844 27.88693359 -12.80929687 28.96136719 -12.83984375 30.06835938 C-12.91034921 32.71231427 -12.96314143 35.3553973 -13 38 C-15.97 38 -18.94 38 -22 38 C-22 25.79 -22 13.58 -22 1 C-19.03 1 -16.06 1 -13 1 C-12.67 1.99 -12.34 2.98 -12 4 C-11.20335937 3.566875 -11.20335937 3.566875 -10.390625 3.125 C-9.33101562 2.568125 -9.33101562 2.568125 -8.25 2 C-7.55390625 1.62875 -6.8578125 1.2575 -6.140625 0.875 C-4 0 -4 0 0 0 Z " fill="#A5A6A5" transform="translate(567,696)"/>
<path d="M0 0 C4.42715523 0.0556375 6.91853233 1.40338485 10.3125 4.3125 C12.89894464 7.7219043 12.67753115 11.1511449 12.3125 15.3125 C10.78921845 18.50413753 9.05467615 21.07463211 6.3125 23.3125 C1.48052824 24.22156587 -2.54650986 24.01106539 -6.75 21.4375 C-10.30779778 17.53539921 -10.07091722 14.14077879 -10.05078125 9.01953125 C-9.6875 6.3125 -9.6875 6.3125 -7.25 3.1875 C-6.404375 2.56875 -5.55875 1.95 -4.6875 1.3125 C-3.6875 0.3125 -3.6875 0.3125 0 0 Z " fill="#1B1F24" transform="translate(593.6875,703.6875)"/>
<path d="M0 0 C3.84546047 2.13636693 6.52360394 3.86364187 8.375 7.875 C8.99328096 12.83863214 8.8462977 17.76195464 8.6875 22.75 C8.66239222 24.11975108 8.63958339 25.48954635 8.61914062 26.859375 C8.5603436 30.19904622 8.47819834 33.53645431 8.375 36.875 C5.405 36.875 2.435 36.875 -0.625 36.875 C-0.62910889 36.04250732 -0.63321777 35.21001465 -0.63745117 34.35229492 C-0.66443957 31.25985594 -0.71352916 28.16878027 -0.77758789 25.0769043 C-0.81216046 23.08209134 -0.82124594 21.08688986 -0.83007812 19.09179688 C-0.85908203 17.83818359 -0.88808594 16.58457031 -0.91796875 15.29296875 C-0.9336792 14.13563232 -0.94938965 12.9782959 -0.96557617 11.78588867 C-1.34368784 8.69027847 -1.34368784 8.69027847 -4.00512695 7.02075195 C-7.98887109 5.27853676 -10.43905341 4.47968447 -14.625 5.875 C-14.955 4.885 -15.285 3.895 -15.625 2.875 C-11.87170989 -2.75493517 -5.95933714 -1.84944946 0 0 Z " fill="#8A8C8C" transform="translate(450.625,697.125)"/>
<path d="M0 0 C0.495 0.99 0.495 0.99 1 2 C-4.16617797 8.92828518 -9.37564751 15.82202565 -14.625 22.6875 C-15.15053467 23.37513428 -15.67606934 24.06276855 -16.2175293 24.77124023 C-16.73613525 25.44872314 -17.25474121 26.12620605 -17.7890625 26.82421875 C-18.27609618 27.47537187 -18.76312986 28.12652498 -19.26492214 28.79741001 C-21 31 -21 31 -22.81365299 32.88558102 C-28.8546975 39.49048809 -28.99329921 45.27862563 -28.88647461 53.96508789 C-28.89437629 55.35558045 -28.90534626 56.74605842 -28.91912842 58.13650513 C-28.94770133 61.88627222 -28.93369648 65.63478201 -28.91168666 69.38454747 C-28.89599124 73.31240422 -28.9199496 77.24002106 -28.93959045 81.16783142 C-28.97075871 88.59440481 -28.9665839 96.02051514 -28.94951588 103.44711727 C-28.93180914 111.90675133 -28.95379984 120.36613911 -28.97902286 128.82573712 C-29.02999314 146.21725804 -29.03144364 163.60843675 -29 181 C-29.33 181 -29.66 181 -30 181 C-30.94261899 151.44950437 -31.1289161 121.92474703 -31.06866455 92.36077881 C-31.05819551 86.65328359 -31.05381797 80.94578343 -31.04882812 75.23828125 C-31.03829399 64.15884191 -31.02136696 53.0794234 -31 42 C-31.99 41.67 -32.98 41.34 -34 41 C-29.25 29.125 -29.25 29.125 -25 27 C-25 27.66 -25 28.32 -25 29 C-24.34 29 -23.68 29 -23 29 C-22.34 27.68 -21.68 26.36 -21 25 C-20.34 25 -19.68 25 -19 25 C-18.62875 23.948125 -18.62875 23.948125 -18.25 22.875 C-16.834088 19.6184024 -15.00994197 16.92355196 -13 14 C-12.484375 13.05125 -11.96875 12.1025 -11.4375 11.125 C-10.963125 10.42375 -10.48875 9.7225 -10 9 C-9.01 9 -8.02 9 -7 9 C-6.773125 8.443125 -6.54625 7.88625 -6.3125 7.3125 C-4.64103234 4.36753316 -2.44723648 2.31843456 0 0 Z " fill="#131516" transform="translate(507,314)"/>
<path d="M0 0 C2.97 0 5.94 0 9 0 C9 12.54 9 25.08 9 38 C6.03 38 3.06 38 0 38 C0 25.46 0 12.92 0 0 Z " fill="#C3C2C0" transform="translate(654,697)"/>
<path d="M0 0 C-0.66 2.31 -1.32 4.62 -2 7 C-2.56847656 6.855625 -3.13695312 6.71125 -3.72265625 6.5625 C-8.56449272 5.39851928 -12.98399074 4.59871926 -18 5 C-18.99 5.66 -19.98 6.32 -21 7 C-20.88693303 8.95894361 -20.88693303 8.95894361 -20 11 C-17.50965614 12.29660434 -17.50965614 12.29660434 -15 13 C-15 13.99 -15 14.98 -15 16 C-24.00985222 18.59605911 -24.00985222 18.59605911 -28 17 C-30.5954657 14.67303075 -30.97600566 13.14129998 -31.5625 9.6875 C-30.82399496 4.84618918 -28.75741562 2.08906837 -25 -1 C-16.95246136 -5.05059445 -7.89501885 -3.64385486 0 0 Z " fill="#D3D5D5" transform="translate(784,699)"/>
<path d="M0 0 C0.66 0.66 1.32 1.32 2 2 C1.01 3.65 0.02 5.3 -1 7 C-0.01 8.485 -0.01 8.485 1 10 C-6.26024606 17.55955853 -13.55103485 24.96256305 -21.8125 31.4375 C-22.70026123 32.13613159 -22.70026123 32.13613159 -23.60595703 32.84887695 C-27.72642382 36 -27.72642382 36 -30 36 C-28.84826645 33.53199953 -27.95216435 31.95216435 -26 30 C-26.3185177 27.89179203 -26.3185177 27.89179203 -27 26 C-26.45214844 25.59652344 -25.90429688 25.19304688 -25.33984375 24.77734375 C-19.47859286 20.28848331 -14.21410017 15.40661795 -9 10.1875 C-8.3412085 9.52935303 -7.68241699 8.87120605 -7.00366211 8.19311523 C-4.37403645 5.53341718 -2.08373991 3.12560987 0 0 Z " fill="#51BFD8" transform="translate(654,570)"/>
<path d="M0 0 C6.92816494 -0.51109413 12.23524282 -0.12340271 18 4 C23.43988691 9.72619675 24.09771107 13.87939962 25 22 C16.75 22 8.5 22 0 22 C0 21.67 0 21.34 0 21 C4.29 21 8.58 21 13 21 C13.33 20.01 13.66 19.02 14 18 C14.66 18 15.32 18 16 18 C14.9063129 13.26068925 14.1052043 9.85083632 10 7 C6.832168 6.66551741 6.832168 6.66551741 4 7 C4.66 5.68 5.32 4.36 6 3 C3.69 2.67 1.38 2.34 -1 2 C-0.67 1.34 -0.34 0.68 0 0 Z " fill="#D5D7D8" transform="translate(723,696)"/>
<path d="M0 0 C4.65232374 0.93046475 7.28123352 2.04188607 11.3125 4.375 C12.38113281 4.98085938 13.44976563 5.58671875 14.55078125 6.2109375 C15.76314453 7.09652344 15.76314453 7.09652344 17 8 C17 8.99 17 9.98 17 11 C13.08740311 10.45658377 11.11226824 9.33420118 8 7 C5.35065178 6.28566879 5.35065178 6.28566879 3 6 C2.167558 8.90394451 1.87783093 11.47139687 1.88647461 14.48831177 C1.8865451 15.38391312 1.8866156 16.27951447 1.88668823 17.20225525 C1.89185455 18.17852371 1.89702087 19.15479218 1.90234375 20.16064453 C1.90380402 21.19591782 1.90526428 22.2311911 1.9067688 23.2978363 C1.91057927 25.55400186 1.91670052 27.8101644 1.92483521 30.06631851 C1.93767577 33.68231042 1.94413833 37.29826518 1.94897461 40.91427612 C1.96231336 49.93178182 1.98602105 58.94925413 2.01037598 67.96673584 C2.03376267 76.75125654 2.05220043 85.53576616 2.0625 94.3203125 C2.06402069 95.5456797 2.06554138 96.77104691 2.06710815 98.03354645 C2.08502059 120.36735919 1.70146846 142.67777182 1 165 C0.67 165 0.34 165 0 165 C0 110.55 0 56.1 0 0 Z " fill="#131A21" transform="translate(517,326)"/>
<path d="M0 0 C6.75544398 10.13316597 5.49628667 26.55559634 5.375 38.3125 C5.37034729 39.12148743 5.36569458 39.93047485 5.36090088 40.76397705 C5.27822275 53.05333843 4.77635284 64.98386634 2 77 C1.79068848 77.92409668 1.58137695 78.84819336 1.36572266 79.80029297 C-2.44457077 96.24145292 -7.42292579 111.37030959 -16 126 C-17.18362259 122.44913223 -16.50889787 121.49227059 -14.90380859 118.26953125 C-14.42548584 117.33173828 -14.42548584 117.33173828 -13.9375 116.375 C-3.00127909 93.78992222 1.69125344 69.97396376 3 45 C3.09087891 43.27910156 3.09087891 43.27910156 3.18359375 41.5234375 C3.4734577 29.14454172 1.40405741 16.5684422 -0.73046875 4.40625 C-1 2 -1 2 0 0 Z " fill="#5E6D77" transform="translate(682,407)"/>
<path d="M0 0 C12.54 0 25.08 0 38 0 C38 2.64 38 5.28 38 8 C34.22918278 8.02899599 30.45839417 8.04679729 26.6875 8.0625 C25.0797168 8.07506836 25.0797168 8.07506836 23.43945312 8.08789062 C21.89741211 8.09272461 21.89741211 8.09272461 20.32421875 8.09765625 C18.9024231 8.10551147 18.9024231 8.10551147 17.4519043 8.11352539 C15 8 15 8 12 7 C12 6.34 12 5.68 12 5 C11.34 4.67 10.68 4.34 10 4 C10.33 3.01 10.66 2.02 11 1 C7.37 1 3.74 1 0 1 C0 0.67 0 0.34 0 0 Z " fill="#909192" transform="translate(373,683)"/>
<path d="M0 0 C16.58606908 7.73293852 29.7985485 29.5577827 38.02441406 45.17822266 C39.07179441 47.13406653 40.16902064 49.05630241 41.2734375 50.98046875 C45.48087697 58.43165201 48.90569973 65.83350304 51.5 74 C51.74314941 74.76465576 51.98629883 75.52931152 52.23681641 76.31713867 C53.79304106 81.53690457 54.52637771 86.57487201 55 92 C52.76077505 89.76077505 52.39466256 88.51604953 51.51953125 85.51953125 C51.10912598 84.15441406 51.10912598 84.15441406 50.69042969 82.76171875 C50.40071289 81.78847656 50.11099609 80.81523437 49.8125 79.8125 C46.55206771 69.19102811 42.41336205 59.57620211 37.296875 49.71875 C36 47 36 47 36 45 C35.34 45 34.68 45 34 45 C33.525625 43.948125 33.05125 42.89625 32.5625 41.8125 C26.60572403 29.94089719 17.5306402 17.0991753 7 9 C3.98531292 6.19563993 1.56543178 3.84242345 0 0 Z " fill="#6C7A82" transform="translate(627,317)"/>
<path d="M0 0 C0.33 0.66 0.66 1.32 1 2 C0.12988281 2.25523437 0.12988281 2.25523437 -0.7578125 2.515625 C-7.27342297 4.5369695 -12.84222547 6.48360327 -16.375 12.6875 C-18.67227204 17.89014551 -19.0654497 22.78086053 -17.26953125 28.20703125 C-15.27782651 32.58878169 -13.04061959 35.27258178 -9 38 C-8.236875 38.5775 -7.47375 39.155 -6.6875 39.75 C-6.130625 40.1625 -5.57375 40.575 -5 41 C-10.86663328 40.7977023 -13.73202519 40.05539226 -17.7734375 35.765625 C-20.61512723 31.67503978 -21.2146358 28.22900132 -21 23.3125 C-20.83270406 20.50225952 -20.83270406 20.50225952 -21 18 C-21.66 17.34 -22.32 16.68 -23 16 C-22.625 13.375 -22.625 13.375 -22 11 C-21.01 11 -20.02 11 -19 11 C-18.5978125 9.7934375 -18.5978125 9.7934375 -18.1875 8.5625 C-17.795625 7.716875 -17.40375 6.87125 -17 6 C-16.01 5.67 -15.02 5.34 -14 5 C-14 4.34 -14 3.68 -14 3 C-9.03006806 0.56574762 -5.65394631 -0.34615998 0 0 Z " fill="#111419" transform="translate(516,694)"/>
<path d="M0 0 C0.33 0.66 0.66 1.32 1 2 C0.5118856 2.53802026 0.02377119 3.07604052 -0.47913456 3.63036442 C-2.39394709 6.61380251 -2.36055852 8.38517427 -2.33384705 11.91416931 C-2.3321904 13.12408035 -2.33053375 14.33399139 -2.3288269 15.58056641 C-2.31183096 16.91821605 -2.29457997 18.25586246 -2.27709961 19.59350586 C-2.26970349 21.00467802 -2.2636905 22.41585802 -2.25895691 23.82704163 C-2.24608963 26.86425269 -2.2239994 29.9012081 -2.19492912 32.93830681 C-2.14958387 37.74127511 -2.12820257 42.54416562 -2.11073303 47.3473053 C-2.06366343 59.2773177 -1.98633825 71.20711235 -1.90020752 83.13690186 C-1.83352145 92.40841157 -1.7757372 101.67978327 -1.74565703 110.95149332 C-1.72915398 115.72559929 -1.69388652 120.49908513 -1.64447963 125.27295864 C-1.61781455 128.24391728 -1.60782978 131.21476106 -1.60244942 134.18582726 C-1.59656186 135.5625154 -1.58377797 136.93919414 -1.56355286 138.31574631 C-1.53688239 140.19660836 -1.53736512 142.07779677 -1.53916931 143.95884705 C-1.53158568 145.01094832 -1.52400206 146.0630496 -1.51618862 147.14703274 C-2.11820193 150.69702005 -3.5806483 152.3950362 -6 155 C-5.83792557 154.13049713 -5.67585114 153.26099426 -5.50886536 152.36514282 C-4.6554542 146.33276085 -4.85568978 140.23668606 -4.8581543 134.15771484 C-4.85511881 132.75594473 -4.85159628 131.35417561 -4.84762573 129.95240784 C-4.83976902 126.94483711 -4.83460419 123.93727807 -4.83133507 120.92969894 C-4.82540187 116.17262937 -4.80884198 111.41563368 -4.78999329 106.65859985 C-4.78365704 105.02735714 -4.7773314 103.39611439 -4.77101612 101.7648716 C-4.76785031 100.94832139 -4.7646845 100.13177119 -4.76142275 99.29047704 C-4.71939432 88.22328646 -4.68634537 77.15613236 -4.67407227 66.08886719 C-4.66569545 58.61163974 -4.64322594 51.1345975 -4.6047166 43.65746272 C-4.5849565 39.70413719 -4.57255147 35.7510885 -4.57755089 31.79771042 C-4.58219271 28.08255997 -4.56841833 24.36793554 -4.54053879 20.65289116 C-4.53032499 18.64172038 -4.5398847 16.63047958 -4.55003357 14.61930847 C-4.53133209 12.81933662 -4.53133209 12.81933662 -4.51225281 10.98300171 C-4.50986445 9.94217123 -4.5074761 8.90134075 -4.50501537 7.82896996 C-3.87642804 4.30778074 -2.39981058 2.5925752 0 0 Z " fill="#8F908F" transform="translate(482,349)"/>
<path d="M0 0 C9.9 0 19.8 0 30 0 C30 0.33 30 0.66 30 1 C28.329375 1.12375 28.329375 1.12375 26.625 1.25 C24.830625 1.62125 24.830625 1.62125 23 2 C21.75825204 3.9001177 21.75825204 3.9001177 21 6 C16.41681838 8.96127945 11.25337262 8.63818749 6 8 C2.875 6.25 2.875 6.25 1 4 C0.67 2.68 0.34 1.36 0 0 Z " fill="#13171A" transform="translate(718,719)"/>
<path d="M0 0 C3.125 2.25 3.125 2.25 5 5 C5 6.32 5 7.64 5 9 C-1.6 9 -8.2 9 -15 9 C-14 3 -14 3 -12.24609375 1.15625 C-8.26983503 -0.89065884 -4.34528457 -0.75814335 0 0 Z " fill="#1D2024" transform="translate(522,704)"/>
<path d="M0 0 C3.125 2.25 3.125 2.25 5 5 C5 6.32 5 7.64 5 9 C-1.6 9 -8.2 9 -15 9 C-14 4 -14 4 -12.5625 1.6875 C-8.55981367 -0.94841539 -4.64425166 -0.87783109 0 0 Z " fill="#1C1F23" transform="translate(733,704)"/>
<path d="M0 0 C1.65 1.65 3.3 3.3 5 5 C4 8 4 8 0.75 10.1875 C-4.83751795 12.83903124 -10.94615805 12.73743684 -17 12 C-17.66 11.34 -18.32 10.68 -19 10 C-18.21625 9.566875 -17.4325 9.13375 -16.625 8.6875 C-13.78301625 7.10779753 -13.78301625 7.10779753 -12 4 C-9.94140625 3.33984375 -9.94140625 3.33984375 -7.5625 2.9375 C-4.25724994 2.36575164 -2.89491319 1.92994213 0 0 Z " fill="#8F918E" transform="translate(528,723)"/>
<path d="M0 0 C3.65844715 -0.34842354 5.73187299 -0.13132751 9.0625 1.5 C13.28867835 5.09674753 16.61366336 8.84573251 17.30859375 14.51953125 C17.3120345 16.70440645 17.22627033 18.82780479 17 21 C16.67 19.68 16.34 18.36 16 17 C8.08 17 0.16 17 -8 17 C-8 16.67 -8 16.34 -8 16 C-2.72 16 2.56 16 8 16 C7.34 13.69 6.68 11.38 6 9 C5.71125 7.741875 5.4225 6.48375 5.125 5.1875 C4.32431692 1.91244569 4.32431692 1.91244569 1.875 0.5625 C1.25625 0.376875 0.6375 0.19125 0 0 Z " fill="#ACADAE" transform="translate(519,697)"/>
<path d="M0 0 C0.495 0.99 0.495 0.99 1 2 C-1.49711913 5.34884969 -4.00512689 8.68927215 -6.51855469 12.02587891 C-7.56183312 13.41611447 -8.60119142 14.80929615 -9.63769531 16.20458984 C-11.35540133 18.51688641 -13.08330721 20.82128553 -14.8125 23.125 C-15.36317139 23.87128662 -15.91384277 24.61757324 -16.48120117 25.38647461 C-17.0094751 26.08651611 -17.53774902 26.78655762 -18.08203125 27.5078125 C-18.54843018 28.13316895 -19.0148291 28.75852539 -19.49536133 29.40283203 C-21.18612948 31.1975757 -22.77114429 31.98526402 -25 33 C-26.7203374 34.4810879 -26.7203374 34.4810879 -28.25 36.125 C-29.1575 37.07375 -30.065 38.0225 -31 39 C-31.66 38.67 -32.32 38.34 -33 38 C-32.23832543 36.53686228 -31.46529293 35.07963339 -30.6875 33.625 C-30.04361328 32.40683594 -30.04361328 32.40683594 -29.38671875 31.1640625 C-28 29 -28 29 -25 27 C-25 27.66 -25 28.32 -25 29 C-24.34 29 -23.68 29 -23 29 C-22.34 27.68 -21.68 26.36 -21 25 C-20.34 25 -19.68 25 -19 25 C-18.62875 23.948125 -18.62875 23.948125 -18.25 22.875 C-16.834088 19.6184024 -15.00994197 16.92355196 -13 14 C-12.484375 13.05125 -11.96875 12.1025 -11.4375 11.125 C-10.963125 10.42375 -10.48875 9.7225 -10 9 C-9.01 9 -8.02 9 -7 9 C-6.773125 8.443125 -6.54625 7.88625 -6.3125 7.3125 C-4.64103234 4.36753316 -2.44723648 2.31843456 0 0 Z " fill="#1A2024" transform="translate(507,314)"/>
<path d="M0 0 C0.66 0 1.32 0 2 0 C2.144375 0.928125 2.28875 1.85625 2.4375 2.8125 C3.64580985 6.09317578 3.64580985 6.09317578 6.13671875 7.06640625 C8.41114288 7.80550483 10.67209519 8.45394826 13 9 C13 9.33 13 9.66 13 10 C11.948125 10.185625 10.89625 10.37125 9.8125 10.5625 C5.04002892 11.8720195 3.50108148 14.90732121 1 19 C0.71125 18.401875 0.4225 17.80375 0.125 17.1875 C-2.02624872 12.98171368 -2.02624872 12.98171368 -6.125 10.8125 C-7.07375 10.544375 -8.0225 10.27625 -9 10 C-7.37448533 8.21193386 -6.18305958 7.07766164 -3.9375 6.125 C-1.28822249 4.58670984 -0.89964656 2.84888077 0 0 Z " fill="#4AB1CD" transform="translate(658,672)"/>
<path d="M0 0 C8.64317721 9.79560084 7.46695362 23.63946306 7 36 C6.70294589 38.00570934 6.37713698 40.00779549 6 42 C5.896875 42.825 5.79375 43.65 5.6875 44.5 C4.7613422 47.86784655 3.11439021 50.24488548 1 53 C0.34 53 -0.32 53 -1 53 C-0.72285156 51.91460937 -0.44570313 50.82921875 -0.16015625 49.7109375 C0.2058563 48.26565719 0.5717346 46.82034288 0.9375 45.375 C1.11990234 44.66214844 1.30230469 43.94929688 1.49023438 43.21484375 C4.78850471 30.14169952 4.46150535 19.28251301 0.875 6.37109375 C0 3 0 3 0 0 Z " fill="#425059" transform="translate(626,393)"/>
<path d="M0 0 C0.66 0.33 1.32 0.66 2 1 C0.25731793 4.96064107 -2.14674729 8.74436549 -5 12 C-5.66 12 -6.32 12 -7 12 C-7 11.34 -7 10.68 -7 10 C-7.45890625 10.34933594 -7.9178125 10.69867188 -8.390625 11.05859375 C-9.00421875 11.51363281 -9.6178125 11.96867187 -10.25 12.4375 C-11.15492188 13.11619141 -11.15492188 13.11619141 -12.078125 13.80859375 C-14.0841928 15.05219269 -15.70541584 15.51887752 -18 16 C-19.6744239 16.6469365 -21.34302621 17.30959426 -23 18 C-23.99 16.68 -24.98 15.36 -26 14 C-24.56720703 13.48953125 -24.56720703 13.48953125 -23.10546875 12.96875 C-14.31451616 9.71503729 -7.30587225 5.9844359 0 0 Z " fill="#20262D" transform="translate(610,466)"/>
<path d="M0 0 C12.21 0 24.42 0 37 0 C36.67 0.99 36.34 1.98 36 3 C34.906875 2.979375 33.81375 2.95875 32.6875 2.9375 C29.05615809 2.81455548 29.05615809 2.81455548 26 4 C23.192653 4.06764692 20.40102229 3.99787145 17.59375 3.9375 C14.8833336 3.87595392 14.8833336 3.87595392 12 5 C9.8125 4.5625 9.8125 4.5625 8 4 C8 3.34 8 2.68 8 2 C5.36 2 2.72 2 0 2 C0 1.34 0 0.68 0 0 Z " fill="#020304" transform="translate(533,393)"/>
<path d="M0 0 C0.33 0 0.66 0 1 0 C1.73259082 10.6879768 2.14036598 21.28539694 2 32 C4.97 32 7.94 32 11 32 C10.01 32.99 9.02 33.98 8 35 C3.86050887 34.99250092 0.04791634 33.92089618 -3.0625 31.1875 C-4.15751049 28.63247553 -4.22941097 26.75293162 -4 24 C-3.34 24 -2.68 24 -2 24 C-2.33 22.68 -2.66 21.36 -3 20 C-2.34 20 -1.68 20 -1 20 C-0.67 13.4 -0.34 6.8 0 0 Z " fill="#0B0E12" transform="translate(420,703)"/>
<path d="M0 0 C0.33 0 0.66 0 1 0 C1.56512927 5.42524104 0.70853782 8.50514648 -2.375 13.0078125 C-6.3919216 17.93240389 -10.85446049 22.0892792 -17 24 C-19.89453125 24.1953125 -19.89453125 24.1953125 -22.8125 24.125 C-24.27623047 24.09792969 -24.27623047 24.09792969 -25.76953125 24.0703125 C-26.50558594 24.04710937 -27.24164062 24.02390625 -28 24 C-28 23.67 -28 23.34 -28 23 C-26.205625 22.87625 -26.205625 22.87625 -24.375 22.75 C-20.05973077 22.22578596 -17.53894862 20.53881097 -14 18 C-12.948125 17.7525 -11.89625 17.505 -10.8125 17.25 C-7.93797958 16.31776229 -7.93797958 16.31776229 -7.0625 14.2421875 C-6.56066068 12.82553691 -6.08932877 11.39772436 -5.6484375 9.9609375 C-4.85596176 7.56441449 -3.59282475 5.939091 -2 4 C-1.30419733 2.68163705 -0.62775567 1.35208914 0 0 Z " fill="#12151A" transform="translate(591,422)"/>
<path d="M0 0 C4.53489627 -0.04986353 9.0696289 -0.08593637 13.60473633 -0.10986328 C15.14382715 -0.11985006 16.68289935 -0.13344419 18.22192383 -0.15087891 C26.37701039 -0.24087337 34.08976364 -0.28577933 42 2 C40.36328125 3.55078125 40.36328125 3.55078125 38 5 C35.35546875 4.85546875 35.35546875 4.85546875 32.1875 4.1875 C21.85122783 2.4008485 11.45599897 2.82433706 1 3 C0.67 2.01 0.34 1.02 0 0 Z " fill="#4D5860" transform="translate(499,272)"/>
<path d="M0 0 C6.27212218 -0.25261712 11.63052674 0.60078807 17.6875 2.1875 C18.55729492 2.40946045 19.42708984 2.6314209 20.32324219 2.86010742 C27.44129432 4.73172094 34.23039243 7.09697485 41 10 C41 10.99 41 11.98 41 13 C35.20937285 11.32412438 29.50552799 9.4835708 23.8125 7.5 C17.24230946 5.22969891 10.70012088 3.83138686 3.8515625 2.67578125 C2.44003906 2.34126953 2.44003906 2.34126953 1 2 C0.67 1.34 0.34 0.68 0 0 Z " fill="#637179" transform="translate(538,275)"/>
<path d="M0 0 C0.94875 0.66 1.8975 1.32 2.875 2 C8.27372961 5.05855448 13.73682012 4.8447581 19.640625 3.31640625 C21.79344247 2.60895523 23.90067162 1.85190137 26 1 C25 3.375 25 3.375 23 6 C16.19052926 8.64812751 9.21839457 8.1980657 2 8 C1.34 9.32 0.68 10.64 0 12 C0 8.04 0 4.08 0 0 Z " fill="#0E1517" transform="translate(584,730)"/>
<path d="M0 0 C0.99 0 1.98 0 3 0 C3 18.15 3 36.3 3 55 C2.67 55 2.34 55 2 55 C1.28464118 43.33709641 0.94190185 31.74522339 1.01953125 20.06005859 C1.04731273 13.31494663 0.80736871 6.70404372 0 0 Z " fill="#060B10" transform="translate(291,677)"/>
<path d="M0 0 C8.91 0 17.82 0 27 0 C26.67 0.66 26.34 1.32 26 2 C24.75863281 1.93039062 23.51726562 1.86078125 22.23828125 1.7890625 C20.59640842 1.73276972 18.95447689 1.67817119 17.3125 1.625 C16.49587891 1.57472656 15.67925781 1.52445313 14.83789062 1.47265625 C10.28788874 1.30662219 10.28788874 1.30662219 6.33081055 3.26123047 C3.72070861 6.29379558 2.35136128 9.01790551 2 13 C1.34 13 0.68 13 0 13 C0 8.71 0 4.42 0 0 Z " fill="#17191C" transform="translate(383,691)"/>
<path d="M0 0 C12.54 0 25.08 0 38 0 C38 0.66 38 1.32 38 2 C35.72979256 2.19493195 33.45879711 2.38070418 31.1875 2.5625 C29.92292969 2.66691406 28.65835938 2.77132812 27.35546875 2.87890625 C24 3 24 3 21 2 C20.360625 2.495 19.72125 2.99 19.0625 3.5 C17 5 17 5 14.75 4.6875 C14.1725 4.460625 13.595 4.23375 13 4 C13 3.34 13 2.68 13 2 C11.783125 2.020625 10.56625 2.04125 9.3125 2.0625 C6.08022678 2.06824116 3.15065259 1.78766315 0 1 C0 0.67 0 0.34 0 0 Z " fill="#13171C" transform="translate(588,546)"/>
<path d="M0 0 C0.66 0.33 1.32 0.66 2 1 C-0.21538462 7.52307692 -0.21538462 7.52307692 -4.1875 9.9375 C-5.115625 10.288125 -6.04375 10.63875 -7 11 C-6.05125 11.433125 -5.1025 11.86625 -4.125 12.3125 C-1 14 -1 14 1 17 C1.125 19.6875 1.125 19.6875 1 22 C1.66 22 2.32 22 3 22 C3 22.99 3 23.98 3 25 C3.99 25.33 4.98 25.66 6 26 C4.35 26 2.7 26 1 26 C0.81824219 25.30132813 0.63648438 24.60265625 0.44921875 23.8828125 C0.19785156 22.97273437 -0.05351563 22.06265625 -0.3125 21.125 C-0.55613281 20.22007812 -0.79976562 19.31515625 -1.05078125 18.3828125 C-1.86669852 15.67886681 -1.86669852 15.67886681 -5 14 C-5.33 14.66 -5.66 15.32 -6 16 C-6.33 15.01 -6.66 14.02 -7 13 C-9.97 12.505 -9.97 12.505 -13 12 C-10.72734429 8.59101644 -9.72248596 8.32945927 -6 7 C-2.90453358 5.85025533 -2.20523003 5.43098307 -0.75 2.375 C-0.37875 1.199375 -0.37875 1.199375 0 0 Z " fill="#1B272A" transform="translate(657,670)"/>
<path d="M0 0 C3.73285702 1.44497691 3.73285702 1.44497691 4.85546875 3.77734375 C5 6 5 6 3.5234375 8.39453125 C2.45996094 9.59142578 2.45996094 9.59142578 1.375 10.8125 C0.68148437 11.62332031 -0.01203125 12.43414063 -0.7265625 13.26953125 C-3 15 -3 15 -5.4453125 14.7890625 C-6.28835938 14.52867187 -7.13140625 14.26828125 -8 14 C-10.62868871 13.75501866 -13.25696715 13.5620156 -15.890625 13.37890625 C-16.58671875 13.25386719 -17.2828125 13.12882813 -18 13 C-18.33 12.34 -18.66 11.68 -19 11 C-17.7315625 10.96132813 -17.7315625 10.96132813 -16.4375 10.921875 C-9.23942167 10.56197108 -4.17634722 9.75425027 2 6 C1.34 4.02 0.68 2.04 0 0 Z " fill="#080C0D" transform="translate(530,724)"/>
<path d="M0 0 C3.40431353 1.40868146 5.12375684 2.81844331 7 6 C7.34057617 9.11621094 7.34057617 9.11621094 7.29296875 12.734375 C7.28330078 14.02988281 7.27363281 15.32539062 7.26367188 16.66015625 C7.23860783 18.02344354 7.21321302 19.38672479 7.1875 20.75 C7.17244518 22.12889184 7.15875817 23.50779935 7.14648438 24.88671875 C7.11111909 28.25820915 7.06175904 31.62890654 7 35 C5.35 35 3.7 35 2 35 C3.485 34.505 3.485 34.505 5 34 C4.91883144 29.79089445 4.80600954 25.5832067 4.6875 21.375 C4.66494141 20.18519531 4.64238281 18.99539063 4.61914062 17.76953125 C4.41176624 9.46754679 4.41176624 9.46754679 1 2 C0.67 1.34 0.34 0.68 0 0 Z " fill="#A7A8A8" transform="translate(452,699)"/>
<path d="M0 0 C0.66 0.66 1.32 1.32 2 2 C0.515 4.475 0.515 4.475 -1 7 C-0.01 8.485 -0.01 8.485 1 10 C-0.85561893 12.19996058 -2.70485976 14.2531134 -5 16 C-7.875 15.875 -7.875 15.875 -10 15 C-8.67494706 8.5403669 -4.40590065 4.61082626 0 0 Z " fill="#5DCDE2" transform="translate(654,570)"/>
<path d="M0 0 C0.33 0 0.66 0 1 0 C1 7.92 1 15.84 1 24 C0.34 24 -0.32 24 -1 24 C-1.1953125 22.01432292 -1.390625 20.02864583 -1.5859375 18.04296875 C-1.92665391 15.70011858 -1.92665391 15.70011858 -4 13 C-4.01171875 11.0625 -4.01171875 11.0625 -3.6875 9 C-3.58824219 8.319375 -3.48898437 7.63875 -3.38671875 6.9375 C-3 5 -3 5 -2 2 C-1.34 2 -0.68 2 0 2 C0 1.34 0 0.68 0 0 Z " fill="#B6B6B4" transform="translate(553,710)"/>
<path d="M0 0 C6.81001139 8.05719371 11.35850598 23.41463932 11 34 C8.73451668 31.73451668 8.31460559 30.33868154 7.37890625 27.30859375 C7.08306641 26.36306641 6.78722656 25.41753906 6.48242188 24.44335938 C6.17884766 23.45142578 5.87527344 22.45949219 5.5625 21.4375 C4.96021129 19.49851894 4.35735277 17.55971479 3.75390625 15.62109375 C3.46273926 14.68120605 3.17157227 13.74131836 2.87158203 12.77294922 C1.63248754 8.83075448 0.32127871 4.91534883 -1 1 C-0.67 0.67 -0.34 0.34 0 0 Z " fill="#677780" transform="translate(671,375)"/>
<path d="M0 0 C0.66 0 1.32 0 2 0 C2 13.86 2 27.72 2 42 C1.67 42 1.34 42 1 42 C0.34353123 34.73195293 -0.05286953 27.56979653 0.03515625 20.2734375 C-0.01549386 15.55734917 -0.36017615 10.86741997 -0.73242188 6.16674805 C-0.85896328 4.44683949 -0.93428972 2.72330506 -1 1 C-0.67 0.67 -0.34 0.34 0 0 Z " fill="#071013" transform="translate(268,677)"/>
<path d="M0 0 C0.33 0 0.66 0 1 0 C1.09796875 0.72445312 1.1959375 1.44890625 1.296875 2.1953125 C2.19355869 7.99283635 2.95016528 12.52386689 7 17 C9.57239261 18.85291115 12.22161448 20.47593416 15 22 C11.11576096 23.29474635 9.71300843 22.63372371 6 21 C2.45785689 18.02137966 0.10586186 15.52398033 -1 11 C-1.19824734 7.65588041 -1.26606836 4.34132356 -1 1 C-0.67 0.67 -0.34 0.34 0 0 Z " fill="#0D1112" transform="translate(496,712)"/>
<path d="M0 0 C0.66 0.33 1.32 0.66 2 1 C-0.71276185 15.11112086 -5.73249038 27.60399955 -13 40 C-14.18412192 36.44763425 -13.50667245 35.48983205 -11.90283203 32.26513672 C-11.58427246 31.6413916 -11.26571289 31.01764648 -10.9375 30.375 C-8.13576311 24.65106712 -5.72853856 18.89129071 -3.625 12.875 C-3.37484131 12.16520996 -3.12468262 11.45541992 -2.86694336 10.72412109 C-1.64790645 7.1783708 -0.61909689 3.70018373 0 0 Z " fill="#475660" transform="translate(679,493)"/>
<path d="M0 0 C11.84799768 5.52390306 19.49260693 17.78585977 27 28 C26.01 28.33 25.02 28.66 24 29 C23.48953125 28.18208984 23.48953125 28.18208984 22.96875 27.34765625 C17.58565028 18.97235482 11.42049852 11.86315119 3.6640625 5.60546875 C1.86661104 3.87130783 0.97977879 2.28120213 0 0 Z " fill="#738189" transform="translate(627,317)"/>
<path d="M0 0 C0.33 0 0.66 0 1 0 C1.05455124 2.66694948 1.09393392 5.33275498 1.125 8 C1.14175781 8.74378906 1.15851562 9.48757813 1.17578125 10.25390625 C1.2375434 17.35655403 -0.08630872 23.51745861 -3.125 30 C-3.47820313 30.763125 -3.83140625 31.52625 -4.1953125 32.3125 C-4.46085938 32.869375 -4.72640625 33.42625 -5 34 C-6.25057967 30.24826099 -5.51047186 29.29036602 -4.0625 25.6875 C-1.91206652 19.65454328 -1.72205781 14.48502578 -2.0546875 8.12890625 C-1.99848452 4.91329294 -1.38593666 2.87393842 0 0 Z " fill="#E4E8E8" transform="translate(629,413)"/>
<path d="M0 0 C0.66 0 1.32 0 2 0 C0.67641052 3.47369651 -0.84493196 6.69797419 -2.64453125 9.94921875 C-3.41313477 11.34624023 -3.41313477 11.34624023 -4.19726562 12.77148438 C-4.99680664 14.21491211 -4.99680664 14.21491211 -5.8125 15.6875 C-9.70074436 22.71902225 -13.46665118 29.78267479 -17 37 C-18 35 -18 35 -17.36669922 33.0480957 C-17.01623535 32.26523193 -16.66577148 31.48236816 -16.3046875 30.67578125 C-15.91796875 29.81146484 -15.53125 28.94714844 -15.1328125 28.05664062 C-14.51019531 26.69829102 -14.51019531 26.69829102 -13.875 25.3125 C-13.483125 24.42626953 -13.09125 23.54003906 -12.6875 22.62695312 C-10.25569066 17.25869426 -7.52226953 12.7159602 -4 8 C-3.18481173 6.54480718 -2.40153443 5.06990601 -1.6875 3.5625 C-1.130625 2.386875 -0.57375 1.21125 0 0 Z " fill="#0F1A21" transform="translate(349,339)"/>
<path d="M0 0 C0.33 0 0.66 0 1 0 C1.24459381 6.88607495 1.45694455 13.77260509 1.64697266 20.66040039 C1.71540274 23.00307669 1.7911945 25.34555005 1.87451172 27.68774414 C1.99304298 31.05588854 2.08502065 34.42387702 2.171875 37.79296875 C2.21439392 38.83897751 2.25691284 39.88498627 2.30072021 40.96269226 C2.4523646 48.27998452 2.4523646 48.27998452 -0.01074219 52.20043945 C-0.9954248 53.09122192 -0.9954248 53.09122192 -2 54 C-1.84152588 53.0711499 -1.68305176 52.1422998 -1.51977539 51.18530273 C-0.80410563 46.15038981 -0.76914808 41.11307269 -0.68359375 36.03515625 C-0.66281265 35.00184677 -0.64203156 33.96853729 -0.62062073 32.90391541 C-0.55556522 29.62350716 -0.49644596 26.34302315 -0.4375 23.0625 C-0.39427289 20.83007049 -0.35065729 18.59764846 -0.30664062 16.36523438 C-0.19992929 10.91023489 -0.09808356 5.45516108 0 0 Z " fill="#757575" transform="translate(478,450)"/>
<path d="M0 0 C0.33 0.66 0.66 1.32 1 2 C-0.59947676 3.90034653 -1.52833609 4.89767037 -3.99291992 5.43237305 C-4.73131104 5.45855713 -5.46970215 5.48474121 -6.23046875 5.51171875 C-7.03291016 5.54716797 -7.83535156 5.58261719 -8.66210938 5.61914062 C-9.49548828 5.64169922 -10.32886719 5.66425781 -11.1875 5.6875 C-12.03248047 5.72166016 -12.87746094 5.75582031 -13.74804688 5.79101562 C-15.83156649 5.87341471 -17.91576216 5.93838645 -20 6 C-20.33 6.66 -20.66 7.32 -21 8 C-20.8125 6.125 -20.8125 6.125 -20 4 C-16.13740515 2.01210778 -12.61189533 1.66791229 -8.3125 1.4375 C-3.99806245 1.32394149 -3.99806245 1.32394149 0 0 Z " fill="#C5C8C5" transform="translate(738,712)"/>
<path d="M0 0 C0 2.64 0 5.28 0 8 C-2.64 8.33 -5.28 8.66 -8 9 C-7.67 7.68 -7.34 6.36 -7 5 C-7.66 4.67 -8.32 4.34 -9 4 C-6.25137935 -0.12293098 -4.89482776 0 0 0 Z " fill="#A8AAAA" transform="translate(567,696)"/>
<path d="M0 0 C2.97 0 5.94 0 9 0 C9 2.97 9 5.94 9 9 C12.3 9 15.6 9 19 9 C19 10.98 19 12.96 19 15 C18.34 14.67 17.68 14.34 17 14 C17 13.01 17 12.02 17 11 C16.36191406 11.01160156 15.72382813 11.02320313 15.06640625 11.03515625 C14.24011719 11.04417969 13.41382813 11.05320312 12.5625 11.0625 C11.32693359 11.07990234 11.32693359 11.07990234 10.06640625 11.09765625 C8 11 8 11 7 10 C6.92820036 8.48071962 6.91607993 6.95832518 6.9375 5.4375 C6.94652344 4.61121094 6.95554687 3.78492188 6.96484375 2.93359375 C6.97644531 2.29550781 6.98804688 1.65742187 7 1 C4.69 1 2.38 1 0 1 C0 0.67 0 0.34 0 0 Z " fill="#AEAEAE" transform="translate(472,688)"/>
<path d="M0 0 C0.66 0 1.32 0 2 0 C1.84152588 0.54817383 1.68305176 1.09634766 1.51977539 1.66113281 C0.9372438 4.28238816 0.78793845 6.73872553 0.68359375 9.421875 C0.64169922 10.44667969 0.59980469 11.47148438 0.55664062 12.52734375 C0.49766602 14.12255859 0.49766602 14.12255859 0.4375 15.75 C0.39431641 16.82894531 0.35113281 17.90789063 0.30664062 19.01953125 C0.20071011 21.67956428 0.09863579 24.33968812 0 27 C-2.17746353 23.7338047 -2.25606429 22.75054166 -2.265625 18.96484375 C-2.26820313 17.99095703 -2.27078125 17.01707031 -2.2734375 16.01367188 C-2.26570313 14.99853516 -2.25796875 13.98339844 -2.25 12.9375 C-2.25773437 11.91849609 -2.26546875 10.89949219 -2.2734375 9.84960938 C-2.27085937 8.87701172 -2.26828125 7.90441406 -2.265625 6.90234375 C-2.26336914 6.01023193 -2.26111328 5.11812012 -2.25878906 4.19897461 C-2 2 -2 2 0 0 Z " fill="#9B9D9E" transform="translate(431,707)"/>
<path d="M0 0 C0.33 0.99 0.66 1.98 1 3 C0.34 3.66 -0.32 4.32 -1 5 C0.32 5.99 1.64 6.98 3 8 C1.02 10.31 -0.96 12.62 -3 15 C-4.32 14.34 -5.64 13.68 -7 13 C-6 11 -5 9 -4 7 C-3.4740625 5.9171875 -3.4740625 5.9171875 -2.9375 4.8125 C-2 3 -2 3 0 0 Z " fill="#69D6E6" transform="translate(659,564)"/>
<path d="M0 0 C0.66 0.33 1.32 0.66 2 1 C0.25731793 4.96064107 -2.14674729 8.74436549 -5 12 C-5.66 12 -6.32 12 -7 12 C-7 11.34 -7 10.68 -7 10 C-7.66 9.67 -8.32 9.34 -9 9 C-9.33 8.34 -9.66 7.68 -10 7 C-6.7 4.69 -3.4 2.38 0 0 Z " fill="#262F38" transform="translate(610,466)"/>
<path d="M0 0 C1.010625 0.78375 2.02125 1.5675 3.0625 2.375 C6.62633284 4.94241427 9.73556373 6.04267757 14 7 C14 7.33 14 7.66 14 8 C13.05125 8.28875 12.1025 8.5775 11.125 8.875 C7.94788422 9.76825109 7.94788422 9.76825109 6 12 C3.875 11.625 3.875 11.625 2 11 C2.99 9.35 3.98 7.7 5 6 C3.68 6 2.36 6 1 6 C0.67 4.02 0.34 2.04 0 0 Z " fill="#ABADAC" transform="translate(506,721)"/>
<path d="M0 0 C0.66 0.33 1.32 0.66 2 1 C2.59772099 3.9829661 2.74337815 6.96330805 3 10 C-0.3 10 -3.6 10 -7 10 C-5 6 -5 6 -2.9375 5 C-0.78719721 4.1704178 -0.78719721 4.1704178 -0.25 1.875 C-0.1675 1.25625 -0.085 0.6375 0 0 Z " fill="#E0E2E3" transform="translate(745,708)"/>
<path d="M0 0 C1.5 1.375 1.5 1.375 3 3 C3 3.66 3 4.32 3 5 C5.97 5.99 8.94 6.98 12 8 C12 8.33 12 8.66 12 9 C9.03 9.66 6.06 10.32 3 11 C0.39665076 8.28817788 0.00543309 7.10866187 -0.1875 3.25 C-0.125625 2.1775 -0.06375 1.105 0 0 Z " fill="#6ACDE4" transform="translate(659,673)"/>
<path d="M0 0 C0.928125 0.165 1.85625 0.33 2.8125 0.5 C5.95621353 1.07748388 5.95621353 1.07748388 9 1 C14 6.34883721 14 6.34883721 14 9 C9.02790438 7.23570801 4.56561939 4.6060834 0 2 C0 1.34 0 0.68 0 0 Z " fill="#D0D1D0" transform="translate(527,329)"/>
<path d="M0 0 C1.32 0 2.64 0 4 0 C3.855625 0.556875 3.71125 1.11375 3.5625 1.6875 C2.08246474 6.42442992 2.08246474 6.42442992 3 11 C6.04581269 11.46954261 6.04581269 11.46954261 9.5625 11.625 C10.76003906 11.69976563 11.95757812 11.77453125 13.19140625 11.8515625 C14.11824219 11.90054688 15.04507812 11.94953125 16 12 C16 12.33 16 12.66 16 13 C10.72 13 5.44 13 0 13 C0 8.71 0 4.42 0 0 Z " fill="#161A1E" transform="translate(383,713)"/>
<path d="M0 0 C0.66 0 1.32 0 2 0 C0.61613025 5.22795237 -2.75961289 7.94942615 -7 11 C-10.19985961 12.8189316 -12.30513273 13.2052704 -16 13 C-14.3054832 11.87032213 -12.60357838 10.75105014 -10.87890625 9.66796875 C-6.43662716 6.82880555 -3.15878587 4.29594879 0 0 Z " fill="#0E1011" transform="translate(473,502)"/>
<path d="M0 0 C-0.99 0.66 -1.98 1.32 -3 2 C-3.845625 2.70125 -4.69125 3.4025 -5.5625 4.125 C-8 6 -8 6 -10 6 C-10 6.66 -10 7.32 -10 8 C-10.99 8.33 -11.98 8.66 -13 9 C-12.52238806 3.62686567 -12.52238806 3.62686567 -10.4375 1.125 C-6.85660328 -0.52772156 -3.92364165 -0.19618208 0 0 Z " fill="#0D0F11" transform="translate(520,704)"/>
<path d="M0 0 C0 3 0 3 -2.375 5.625 C-6.44447084 8.88253315 -10.95600776 8.89034799 -16 9 C-16.33 8.01 -16.66 7.02 -17 6 C-16.27554687 5.90203125 -15.55109375 5.8040625 -14.8046875 5.703125 C-8.85607192 4.78307246 -4.6990896 3.81007265 0 0 Z " fill="#080F12" transform="translate(276,729)"/>
<path d="M0 0 C9.57 0 19.14 0 29 0 C29 2.31 29 4.62 29 7 C28.34 7 27.68 7 27 7 C26.67 5.35 26.34 3.7 26 2 C13.13 1.505 13.13 1.505 0 1 C0 0.67 0 0.34 0 0 Z " fill="#9C9C9C" transform="translate(383,727)"/>
<path d="M0 0 C0.99 0.33 1.98 0.66 3 1 C-13.5648415 13 -13.5648415 13 -18 13 C-18 12.34 -18 11.68 -18 11 C-17.175 10.608125 -16.35 10.21625 -15.5 9.8125 C-12.0940771 8.0487185 -8.93579644 6.09154069 -5.734375 3.98828125 C-4 3 -4 3 -2 3 C-2 2.34 -2 1.68 -2 1 C-1.34 0.67 -0.68 0.34 0 0 Z " fill="#44AFCD" transform="translate(621,606)"/>
<path d="M0 0 C0.66 0 1.32 0 2 0 C2.75 2.125 2.75 2.125 3 5 C1.68693567 7.0133653 0.35162508 9.01231606 -1 11 C-1.79682803 14.73225344 -1.79682803 14.73225344 -2 18 C-4 16 -4 16 -4.08203125 13.9765625 C-3.55984929 9.42071406 -3.12365595 6.53108933 0 3 C0 2.01 0 1.02 0 0 Z " fill="#BDBEC0" transform="translate(585,701)"/>
<path d="M0 0 C-4.24781554 3.18586165 -7.65099984 3.29882082 -12.75 2.8125 C-13.43449219 2.76802734 -14.11898438 2.72355469 -14.82421875 2.67773438 C-16.5586384 2.53863735 -18.2824569 2.27857711 -20 2 C-20.33 1.34 -20.66 0.68 -21 0 C-17.87549468 -0.19645093 -14.75038555 -0.38063489 -11.625 -0.5625 C-10.29082031 -0.64661133 -10.29082031 -0.64661133 -8.9296875 -0.73242188 C-7.65351563 -0.80493164 -7.65351563 -0.80493164 -6.3515625 -0.87890625 C-5.56604004 -0.9260376 -4.78051758 -0.97316895 -3.97119141 -1.02172852 C-2 -1 -2 -1 0 0 Z " fill="#0A0A0C" transform="translate(466,553)"/>
<path d="M0 0 C-2.44127351 2.95522583 -4.24532532 3.49375173 -8 4 C-10.10762055 3.91802229 -12.21352626 3.77009081 -14.3125 3.5625 C-15.38113281 3.46066406 -16.44976563 3.35882812 -17.55078125 3.25390625 C-18.76314453 3.12822266 -18.76314453 3.12822266 -20 3 C-20 2.34 -20 1.68 -20 1 C-19.10796875 0.93941406 -18.2159375 0.87882813 -17.296875 0.81640625 C-15.54117188 0.69072266 -15.54117188 0.69072266 -13.75 0.5625 C-12.58984375 0.48128906 -11.4296875 0.40007813 -10.234375 0.31640625 C-7.13958478 0.10242623 -7.13958478 0.10242623 -4.765625 -0.59765625 C-3 -1 -3 -1 0 0 Z " fill="#1F2427" transform="translate(780,734)"/>
<path d="M0 0 C0 4.29525524 -2.23382207 5.83865379 -5 9 C-5.99 10.485 -5.99 10.485 -7 12 C-7.66 12 -8.32 12 -9 12 C-9.33 12.66 -9.66 13.32 -10 14 C-11.64363134 14.72159424 -13.31050386 15.39351421 -15 16 C-10.30233025 10.33870569 -5.25276628 5.14771096 0 0 Z " fill="#162A36" transform="translate(656,578)"/>
<path d="M0 0 C0.66 0.33 1.32 0.66 2 1 C-0.1875 3.5625 -0.1875 3.5625 -3 6 C-5.3125 5.6875 -5.3125 5.6875 -8 5 C-9.93502491 4.78847906 -11.87283455 4.60108624 -13.8125 4.4375 C-15.27623047 4.31181641 -15.27623047 4.31181641 -16.76953125 4.18359375 C-17.87361328 4.09271484 -17.87361328 4.09271484 -19 4 C-19 3.67 -19 3.34 -19 3 C-18.04738281 2.95101562 -17.09476563 2.90203125 -16.11328125 2.8515625 C-14.85902344 2.77679687 -13.60476563 2.70203125 -12.3125 2.625 C-10.45044922 2.52058594 -10.45044922 2.52058594 -8.55078125 2.4140625 C-5.29278663 2.03414234 -2.99258465 1.24017021 0 0 Z " fill="#13191D" transform="translate(698,732)"/>
<path d="M0 0 C-0.66 0.66 -1.32 1.32 -2 2 C-2.66 1.67 -3.32 1.34 -4 1 C-8.5134952 0.46848802 -11.89138503 0.13473954 -15.5625 3 C-16.036875 3.66 -16.51125 4.32 -17 5 C-17.33 4.01 -17.66 3.02 -18 2 C-13.78376033 -4.32435951 -6.28919134 -2.45431857 0 0 Z " fill="#8F9193" transform="translate(453,698)"/>
<path d="M0 0 C0.33 0.66 0.66 1.32 1 2 C-3 3.33333333 -7 4.66666667 -11 6 C-11 5.34 -11 4.68 -11 4 C-11.99 4.33 -12.98 4.66 -14 5 C-14 4.34 -14 3.68 -14 3 C-9.03006806 0.56574762 -5.65394631 -0.34615998 0 0 Z " fill="#171C22" transform="translate(516,694)"/>
<path d="M0 0 C7.41265823 0.48607595 7.41265823 0.48607595 10 2.75 C11.15310705 5.34449086 11.23416481 7.19002223 11 10 C11.66 10 12.32 10 13 10 C13 10.99 13 11.98 13 13 C13.99 13.33 14.98 13.66 16 14 C14.35 14 12.7 14 11 14 C10.81824219 13.30132813 10.63648438 12.60265625 10.44921875 11.8828125 C10.07216797 10.51769531 10.07216797 10.51769531 9.6875 9.125 C9.44386719 8.22007812 9.20023438 7.31515625 8.94921875 6.3828125 C8.13330148 3.67886681 8.13330148 3.67886681 5 2 C4.67 2.66 4.34 3.32 4 4 C3.67 3.01 3.34 2.02 3 1 C2.01 0.67 1.02 0.34 0 0 Z " fill="#0F161A" transform="translate(647,682)"/>
<path d="M0 0 C0.99 0.99 1.98 1.98 3 3 C1.9171875 3.804375 1.9171875 3.804375 0.8125 4.625 C-2.247842 7.2092888 -4.51220011 9.87248014 -7 13 C-7.33 12.01 -7.66 11.02 -8 10 C-6.34765625 7.51953125 -6.34765625 7.51953125 -4.0625 4.8125 C-3.31097656 3.91144531 -2.55945313 3.01039063 -1.78515625 2.08203125 C-0.90150391 1.05142578 -0.90150391 1.05142578 0 0 Z " fill="#C5C7C5" transform="translate(516,305)"/>
<path d="M0 0 C3.72606569 1.44234801 3.72606569 1.44234801 4.875 3.78125 C5 6 5 6 3.34765625 8.359375 C2.59355469 9.14828125 1.83945312 9.9371875 1.0625 10.75 C-0.06478516 11.94882812 -0.06478516 11.94882812 -1.21484375 13.171875 C-1.80394531 13.77515625 -2.39304687 14.3784375 -3 15 C-3.66 14.67 -4.32 14.34 -5 14 C-4.01 13.01 -3.02 12.02 -2 11 C-2.66 10.34 -3.32 9.68 -4 9 C-2.02 8.01 -0.04 7.02 2 6 C1.34 4.02 0.68 2.04 0 0 Z " fill="#14191A" transform="translate(530,724)"/>
<path d="M0 0 C0.99 0 1.98 0 3 0 C3 6.6 3 13.2 3 20 C2.67 20 2.34 20 2 20 C1.34 13.4 0.68 6.8 0 0 Z " fill="#091319" transform="translate(291,677)"/>
<path d="M0 0 C0.91058531 3.07322544 1.08886184 5.80097361 1 9 C-2.38023517 9 -4.83468937 8.12544378 -8 7 C-5.85199157 4.63719073 -3.83319533 3.41659766 -1 2 C-0.67 1.34 -0.34 0.68 0 0 Z " fill="#1B7E9D" transform="translate(657,675)"/>
<path d="M0 0 C6.93 0 13.86 0 21 0 C19 2 19 2 16.28515625 2.16015625 C15.22167969 2.12792969 14.15820312 2.09570312 13.0625 2.0625 C9.61647666 1.96619558 7.28513289 1.9049557 4 3 C1.8125 2.5625 1.8125 2.5625 0 2 C0 1.34 0 0.68 0 0 Z " fill="#080C10" transform="translate(541,395)"/>
<path d="M0 0 C0.99 1.485 0.99 1.485 2 3 C3.65 2.34 5.3 1.68 7 1 C7 4.38023517 6.12544378 6.83468937 5 10 C0.07692308 5.69230769 0.07692308 5.69230769 -0.3125 2.1875 C-0.209375 1.465625 -0.10625 0.74375 0 0 Z " fill="#959899" transform="translate(553,697)"/>
<path d="M0 0 C1 2 1 2 0.5 4.75 C-1.46919841 9.01659656 -4.30342127 11.2127401 -8 14 C-6.6744419 10.37723685 -5.05653045 7.36494652 -2.875 4.1875 C-2.33617187 3.39730469 -1.79734375 2.60710938 -1.2421875 1.79296875 C-0.83226562 1.20128906 -0.42234375 0.60960937 0 0 Z " fill="#203949" transform="translate(680,545)"/>
<path d="M0 0 C0.33 0 0.66 0 1 0 C0.91329863 2.95980532 0.80646977 5.91646869 0.6875 8.875 C0.66494141 9.71675781 0.64238281 10.55851562 0.61914062 11.42578125 C0.5659668 12.63427734 0.5659668 12.63427734 0.51171875 13.8671875 C0.48553467 14.61081543 0.45935059 15.35444336 0.43237305 16.12060547 C0 18 0 18 -3 20 C-2.69215623 17.04111327 -2.37894426 14.08296833 -2.0625 11.125 C-1.97548828 10.28324219 -1.88847656 9.44148438 -1.79882812 8.57421875 C-1.71181641 7.76855469 -1.62480469 6.96289062 -1.53515625 6.1328125 C-1.456604 5.38918457 -1.37805176 4.64555664 -1.29711914 3.87939453 C-1 2 -1 2 0 0 Z " fill="#2D4D61" transform="translate(705,468)"/>
<path d="M0 0 C0.33 0 0.66 0 1 0 C1.30769231 8 1.30769231 8 -1 11 C-3.125 11.75 -3.125 11.75 -5 12 C-4.42365861 7.24518354 -2.44931479 4.02951788 0 0 Z " fill="#0C0D0E" transform="translate(591,422)"/>
<path d="M0 0 C0.99 0 1.98 0 3 0 C1.37815499 3.58513106 -0.79256239 6.58992323 -3.125 9.75 C-3.84945313 10.73484375 -4.57390625 11.7196875 -5.3203125 12.734375 C-5.87460937 13.48203125 -6.42890625 14.2296875 -7 15 C-7.66 14.67 -8.32 14.34 -9 14 C-8.236875 12.96875 -7.47375 11.9375 -6.6875 10.875 C-4.42729745 7.72480267 -2.66917299 4.50526327 -1 1 C-0.67 0.67 -0.34 0.34 0 0 Z " fill="#16262F" transform="translate(361,322)"/>
<path d="M0 0 C5.98511371 0.34302035 10.75117306 0.82307843 16 4 C16 4.99 16 5.98 16 7 C15.43152344 6.73445312 14.86304688 6.46890625 14.27734375 6.1953125 C9.56807886 4.04115794 5.01768869 2.28111201 0 1 C0 0.67 0 0.34 0 0 Z " fill="#DEE0DF" transform="translate(685,712)"/>
<path d="M0 0 C4.62 0 9.24 0 14 0 C13.67 0.99 13.34 1.98 13 3 C10.69 3.33 8.38 3.66 6 4 C6 3.34 6 2.68 6 2 C4.02 2 2.04 2 0 2 C0 1.34 0 0.68 0 0 Z " fill="#080B0C" transform="translate(394,713)"/>
<path d="M0 0 C1.65 0 3.3 0 5 0 C5 2.31 5 4.62 5 7 C3.35 7 1.7 7 0 7 C0 4.69 0 2.38 0 0 Z " fill="#D7D7D7" transform="translate(641,697)"/>
<path d="M0 0 C0.33 0 0.66 0 1 0 C1.33 2.31 1.66 4.62 2 7 C4.97 7.33 7.94 7.66 11 8 C10.01 8.99 9.02 9.98 8 11 C4.84024823 10.79808149 2.07243514 9.84603286 -1 9 C-0.67 6.03 -0.34 3.06 0 0 Z " fill="#050709" transform="translate(420,727)"/>
<path d="M0 0 C0.38218767 1.65614657 0.71395102 3.32457024 1 5 C0 6 0 6 -3.0625 6.0625 C-4.031875 6.041875 -5.00125 6.02125 -6 6 C-5.01 4.35 -4.02 2.7 -3 1 C-4.32 0.67 -5.64 0.34 -7 0 C-3.86650268 -1.04449911 -3.01031744 -0.93423645 0 0 Z " fill="#AAAAA9" transform="translate(492,728)"/>
<path d="M0 0 C-0.99 1.485 -0.99 1.485 -2 3 C-3.97991915 3.29211922 -5.96328423 3.57568332 -7.95703125 3.75 C-10.52121625 4.06378172 -12.67004983 4.90783586 -15 6 C-15.66 5.34 -16.32 4.68 -17 4 C-4.625 -0.125 -4.625 -0.125 0 0 Z " fill="#0F1E2A" transform="translate(572,634)"/>
<path d="M0 0 C0 3 0 3 -1.4609375 4.71875 C-2.09257812 5.3065625 -2.72421875 5.894375 -3.375 6.5 C-5.65041801 8.63496011 -7.24747563 10.37121344 -9 13 C-9.99 12.67 -10.98 12.34 -12 12 C-8 8 -4 4 0 0 Z " fill="#1A2326" transform="translate(500,531)"/>
<path d="M0 0 C-1.91177934 1.3196087 -3.82961631 2.63044459 -5.75 3.9375 C-6.81734375 4.66839844 -7.8846875 5.39929688 -8.984375 6.15234375 C-11.48274011 7.68307781 -13.15325323 8.56469649 -16 9 C-14.71034824 7.62437146 -13.37310707 6.29233607 -12 5 C-11.34 5 -10.68 5 -10 5 C-10 4.34 -10 3.68 -10 3 C-3.375 -1.125 -3.375 -1.125 0 0 Z " fill="#1E303E" transform="translate(414,281)"/>
<path d="M0 0 C3.94438454 0.43826495 6.82525195 1.61893896 10 4 C10.8125 6.1875 10.8125 6.1875 11 8 C10.60167969 7.51917969 10.20335937 7.03835938 9.79296875 6.54296875 C7.56549753 4.62608175 6.21165331 4.52258357 3.3125 4.3125 C2.50425781 4.24675781 1.69601562 4.18101562 0.86328125 4.11328125 C0.24839844 4.07589844 -0.36648438 4.03851562 -1 4 C-1 1 -1 1 0 0 Z " fill="#75787A" transform="translate(439,701)"/>
<path d="M0 0 C3.08496658 3.49629546 4.93180036 6.43587428 6 11 C5.625 13.375 5.625 13.375 5 15 C3 14 3 14 2.1484375 11.6015625 C1.89320313 10.61929687 1.63796875 9.63703125 1.375 8.625 C1.11460937 7.64789063 0.85421875 6.67078125 0.5859375 5.6640625 C0 3 0 3 0 0 Z " fill="#495760" transform="translate(626,393)"/>
<path d="M0 0 C-1.1446875 0.8971875 -1.1446875 0.8971875 -2.3125 1.8125 C-5.50391427 4.41016278 -7.7151483 6.57272246 -10 10 C-9.51470588 3.56985294 -9.51470588 3.56985294 -7.25 1.0625 C-4.64597372 -0.16717908 -2.84687774 -0.23723981 0 0 Z " fill="#1D1F22" transform="translate(644,705)"/>
<path d="M0 0 C3.45201639 1.47721422 5.64961936 3.43794001 8.25 6.125 C8.95640625 6.84945313 9.6628125 7.57390625 10.390625 8.3203125 C11.18726563 9.15175781 11.18726563 9.15175781 12 10 C11.67 10.66 11.34 11.32 11 12 C10.54109375 11.51789063 10.0821875 11.03578125 9.609375 10.5390625 C8.99578125 9.90742188 8.3821875 9.27578125 7.75 8.625 C6.84507812 7.68527344 6.84507812 7.68527344 5.921875 6.7265625 C4.0299412 5.02689839 2.31798691 4.01540134 0 3 C0 2.01 0 1.02 0 0 Z " fill="#ECF0EF" transform="translate(605,368)"/>
<path d="M0 0 C5.75 1.625 5.75 1.625 8 5 C6.375 5.75 6.375 5.75 4 6 C0.75 4.0625 0.75 4.0625 -2 2 C-1.34 1.34 -0.68 0.68 0 0 Z " fill="#20252C" transform="translate(527,331)"/>
<path d="M0 0 C4.75 1.875 4.75 1.875 7 3 C7 3.66 7 4.32 7 5 C5.88625 4.979375 4.7725 4.95875 3.625 4.9375 C0.16784079 4.73619282 0.16784079 4.73619282 -2 6 C-2 4.68 -2 3.36 -2 2 C-1.34 2 -0.68 2 0 2 C0 1.34 0 0.68 0 0 Z " fill="#191D23" transform="translate(520,327)"/>
<path d="M0 0 C0.98484375 0.00902344 1.9696875 0.01804687 2.984375 0.02734375 C4.10585938 0.04474609 4.10585938 0.04474609 5.25 0.0625 C2.13089144 1.85525866 -0.42682428 2.40540718 -4 2.6875 C-4.89203125 2.76226563 -5.7840625 2.83703125 -6.703125 2.9140625 C-7.71632813 2.98753906 -7.71632813 2.98753906 -8.75 3.0625 C-9.08 2.4025 -9.41 1.7425 -9.75 1.0625 C-6.43929162 0.06140485 -3.44915231 -0.04106134 0 0 Z " fill="#090E11" transform="translate(485.75,734.9375)"/>
<path d="M0 0 C0.78375 0.04125 1.5675 0.0825 2.375 0.125 C1.12374616 3.87876152 -0.1902404 4.36573289 -3.625 6.125 C-4.285 6.125 -4.945 6.125 -5.625 6.125 C-4.86443086 2.32215429 -4.27658992 0.20364714 0 0 Z " fill="#17242C" transform="translate(666.625,682.875)"/>
<path d="M0 0 C0.33 0 0.66 0 1 0 C1 4.29 1 8.58 1 13 C0.01 12.67 -0.98 12.34 -2 12 C-2.17835515 7.45194365 -1.99785435 4.1205746 0 0 Z " fill="#F1F4F1" transform="translate(629,413)"/>
<path d="M0 0 C0.99 0.33 1.98 0.66 3 1 C1.92807816 2.3218362 0.84197305 3.63217927 -0.25 4.9375 C-0.85328125 5.66839844 -1.4565625 6.39929688 -2.078125 7.15234375 C-4.10741134 9.10326334 -5.254407 9.61731779 -8 10 C-8 9.34 -8 8.68 -8 8 C-7.34 8 -6.68 8 -6 8 C-5.7525 7.4225 -5.505 6.845 -5.25 6.25 C-3.83316683 3.6997003 -2.12372463 1.98214299 0 0 Z " fill="#232E34" transform="translate(504,314)"/>
<path d="M0 0 C1.95803507 -0.05389087 3.91648909 -0.09274217 5.875 -0.125 C7.51082031 -0.15980469 7.51082031 -0.15980469 9.1796875 -0.1953125 C12 0 12 0 14 2 C9.97542684 3.34152439 6.1944205 3.27060777 2 3 C1.34 2.01 0.68 1.02 0 0 Z " fill="#0C161B" transform="translate(330,734)"/>
<path d="M0 0 C3.3 0 6.6 0 10 0 C10 1.98 10 3.96 10 6 C9.34 5.67 8.68 5.34 8 5 C8 4.01 8 3.02 8 2 C5.36 2 2.72 2 0 2 C0 1.34 0 0.68 0 0 Z " fill="#9FA2A2" transform="translate(481,697)"/>
<path d="M0 0 C0.33 0.66 0.66 1.32 1 2 C-1.31 4.97 -3.62 7.94 -6 11 C-6.33 9.68 -6.66 8.36 -7 7 C-5.56640625 5.078125 -5.56640625 5.078125 -3.5625 3.25 C-2.90378906 2.63640625 -2.24507813 2.0228125 -1.56640625 1.390625 C-1.04949219 0.93171875 -0.53257812 0.4728125 0 0 Z " fill="#0E1113" transform="translate(484,344)"/>
<path d="M0 0 C2.64 0 5.28 0 8 0 C8.33 0.99 8.66 1.98 9 3 C9.66 3.33 10.32 3.66 11 4 C9.68 4.33 8.36 4.66 7 5 C6.67 4.01 6.34 3.02 6 2 C4.02 2.33 2.04 2.66 0 3 C0 2.01 0 1.02 0 0 Z " fill="#9EA0A1" transform="translate(423,697)"/>
<path d="M0 0 C0.66 0.66 1.32 1.32 2 2 C0.625 4 0.625 4 -1 6 C-1.66 6 -2.32 6 -3 6 C-3.2475 6.639375 -3.495 7.27875 -3.75 7.9375 C-5 10 -5 10 -7.078125 10.62890625 C-8.02945313 10.81259766 -8.02945313 10.81259766 -9 11 C-8.60167969 10.54109375 -8.20335937 10.0821875 -7.79296875 9.609375 C-5.08857938 6.47728415 -2.42008229 3.36122541 0 0 Z " fill="#57C2D8" transform="translate(654,570)"/>
<path d="M0 0 C4.95 0 9.9 0 15 0 C10.50558703 2.24720649 7.965389 2.7635529 3 3 C2.01 2.01 1.02 1.02 0 0 Z " fill="#191F21" transform="translate(722,735)"/>
<path d="M0 0 C2.64 0 5.28 0 8 0 C8 0.99 8 1.98 8 3 C5.36 3 2.72 3 0 3 C0 2.01 0 1.02 0 0 Z " fill="#8F9090" transform="translate(527,715)"/>
<path d="M0 0 C1.32 0.33 2.64 0.66 4 1 C4.66 3.31 5.32 5.62 6 8 C5.01 8 4.02 8 3 8 C3 7.01 3 6.02 3 5 C2.34 5 1.68 5 1 5 C0.67 3.35 0.34 1.7 0 0 Z " fill="#999B9C" transform="translate(520,698)"/>
<path d="M0 0 C-3.465 2.97 -3.465 2.97 -7 6 C-7.66 5.34 -8.32 4.68 -9 4 C-6.56225426 0.2214941 -6.56225426 0.2214941 -3.9375 -0.8125 C-2 -1 -2 -1 0 0 Z " fill="#5DD4E2" transform="translate(395,302)"/>
<path d="M0 0 C0.66 0.66 1.32 1.32 2 2 C1.875 5 1.875 5 1 8 C-0.98 8.99 -0.98 8.99 -3 10 C-2.01 6.7 -1.02 3.4 0 0 Z " fill="#254654" transform="translate(695,510)"/>
<path d="M0 0 C0.66 0.33 1.32 0.66 2 1 C-1.42125054 3.87385045 -4.83888437 5.45884606 -9 7 C-9.66 6.67 -10.32 6.34 -11 6 C-9.21385682 4.96953278 -7.42089982 3.95086764 -5.625 2.9375 C-4.62726562 2.36902344 -3.62953125 1.80054688 -2.6015625 1.21484375 C-1.74304688 0.81394531 -0.88453125 0.41304687 0 0 Z " fill="#0E1B28" transform="translate(604,619)"/>
<path d="M0 0 C1.32 0.66 2.64 1.32 4 2 C4 3.32 4 4.64 4 6 C2.02 6 0.04 6 -2 6 C-1.01 5.67 -0.02 5.34 1 5 C0.34 3.68 -0.32 2.36 -1 1 C-0.67 0.67 -0.34 0.34 0 0 Z " fill="#07080B" transform="translate(733,706)"/>
<path d="M0 0 C0.99 1.485 0.99 1.485 2 3 C1.01 3 0.02 3 -1 3 C-1.66 2.34 -2.32 1.68 -3 1 C-5.65537372 0.43479997 -8.29144713 0.26211802 -11 0 C-11 -0.33 -11 -0.66 -11 -1 C-6.6292047 -2.01646402 -3.97712063 -2.20951146 0 0 Z " fill="#A8A8A8" transform="translate(736,704)"/>
<path d="M0 0 C2.64 0 5.28 0 8 0 C6.25 2.0625 6.25 2.0625 4 4 C1.75 3.75 1.75 3.75 0 3 C0 2.01 0 1.02 0 0 Z " fill="#06080D" transform="translate(601,547)"/>
<path d="M0 0 C3.41158256 1.13719419 4.11854601 2.04342944 6 5 C6 5.66 6 6.32 6 7 C3.5625 6.3125 3.5625 6.3125 1 5 C0.1875 2.375 0.1875 2.375 0 0 Z " fill="#DADCDD" transform="translate(535,331)"/>
<path d="M0 0 C2.6015625 -0.29296875 2.6015625 -0.29296875 5.625 -0.1875 C7.12933594 -0.14689453 7.12933594 -0.14689453 8.6640625 -0.10546875 C9.43492187 -0.07066406 10.20578125 -0.03585937 11 0 C11 0.33 11 0.66 11 1 C8.36 1.33 5.72 1.66 3 2 C3 2.66 3 3.32 3 4 C1.35 3.67 -0.3 3.34 -2 3 C-1.34 2.01 -0.68 1.02 0 0 Z " fill="#989999" transform="translate(524,714)"/>
<path d="M0 0 C0.6875 1.75 0.6875 1.75 1 4 C-0.3125 6.25 -0.3125 6.25 -2 8 C-2.66 8 -3.32 8 -4 8 C-3.40138258 5.64828869 -2.73075648 3.3140622 -2 1 C-1.34 0.67 -0.68 0.34 0 0 Z " fill="#141A1D" transform="translate(498,324)"/>
<path d="M0 0 C0.99 0.33 1.98 0.66 3 1 C0.69 3.64 -1.62 6.28 -4 9 C-4.33 7.68 -4.66 6.36 -5 5 C-2.5625 2.25 -2.5625 2.25 0 0 Z " fill="#4DB9D0" transform="translate(372,320)"/>
<path d="M0 0 C3.3 0 6.6 0 10 0 C10 0.66 10 1.32 10 2 C7.69 2.33 5.38 2.66 3 3 C2.67 2.34 2.34 1.68 2 1 C1.34 0.67 0.68 0.34 0 0 Z " fill="#0A1014" transform="translate(544,735)"/>
<path d="M0 0 C0.66 0.33 1.32 0.66 2 1 C0.35 2.65 -1.3 4.3 -3 6 C-4.32 5.34 -5.64 4.68 -7 4 C-6.1028125 3.566875 -6.1028125 3.566875 -5.1875 3.125 C-2.80672208 1.95257974 -2.80672208 1.95257974 0 0 Z " fill="#161D1D" transform="translate(608,731)"/>
<path d="M0 0 C1.65 0 3.3 0 5 0 C5 0.99 5 1.98 5 3 C2.69 3.33 0.38 3.66 -2 4 C-1.34 2.68 -0.68 1.36 0 0 Z " fill="#DEE0DE" transform="translate(764,712)"/>
<path d="M0 0 C0.99 0.66 1.98 1.32 3 2 C2.01 3.32 1.02 4.64 0 6 C-0.99 5.67 -1.98 5.34 -3 5 C-2.625 3.0625 -2.625 3.0625 -2 1 C-1.34 0.67 -0.68 0.34 0 0 Z " fill="#2A3032" transform="translate(765,704)"/>
<path d="M0 0 C3.74525799 3.74525799 3.68909949 7.98270909 4 13 C0.90576832 9.90576832 0.06293995 6.4476188 -0.125 2.125 C-0.08375 1.42375 -0.0425 0.7225 0 0 Z " fill="#5F6363" transform="translate(392,501)"/>
<path d="M0 0 C0.66 0 1.32 0 2 0 C2.6875 1.625 2.6875 1.625 3 4 C1.5625 7.25 1.5625 7.25 0 10 C-1.2380014 6.42355152 -0.74926071 3.66305234 0 0 Z " fill="#70D7D9" transform="translate(696,478)"/>
<path d="M0 0 C0.66 0.33 1.32 0.66 2 1 C-0.31 3.64 -2.62 6.28 -5 9 C-5 4.61031544 -2.87194899 3.23094261 0 0 Z " fill="#182933" transform="translate(371,312)"/>
<path d="M0 0 C2.97 0.33 5.94 0.66 9 1 C7.375 2.5625 7.375 2.5625 5 4 C1.75 3.6875 1.75 3.6875 -1 3 C-0.67 2.01 -0.34 1.02 0 0 Z " fill="#505C65" transform="translate(532,273)"/>
<path d="M0 0 C2.97 0 5.94 0 9 0 C8.67 0.99 8.34 1.98 8 3 C5.6568787 2.74438677 3.32156597 2.40729228 1 2 C0.67 1.34 0.34 0.68 0 0 Z " fill="#070D10" transform="translate(654,735)"/>
<path d="M0 0 C4.875 4.75 4.875 4.75 6 7 C3.5625 6.3125 3.5625 6.3125 1 5 C0.1875 2.375 0.1875 2.375 0 0 Z " fill="#DCDFDF" transform="translate(629,539)"/>
<path d="M0 0 C0.99 0.66 1.98 1.32 3 2 C1.71034824 3.37562854 0.37310707 4.70766393 -1 6 C-1.66 6 -2.32 6 -3 6 C-2.42655063 3.13275314 -2.1385485 2.1385485 0 0 Z " fill="#15242F" transform="translate(385,310)"/>
<path d="M0 0 C0.66 0.33 1.32 0.66 2 1 C0.35 2.98 -1.3 4.96 -3 7 C-3.99 6.34 -4.98 5.68 -6 5 C-4.02 3.35 -2.04 1.7 0 0 Z " fill="#46515A" transform="translate(515,304)"/>
<path d="M0 0 C0.66 0.33 1.32 0.66 2 1 C0.35 2.65 -1.3 4.3 -3 6 C-3.66 4.68 -4.32 3.36 -5 2 C-2.625 0.9375 -2.625 0.9375 0 0 Z " fill="#192024" transform="translate(698,732)"/>
<path d="M0 0 C0.33 0 0.66 0 1 0 C1 1.65 1 3.3 1 5 C-1.64 5 -4.28 5 -7 5 C-6 3 -6 3 -4 2.3125 C-3.34 2.209375 -2.68 2.10625 -2 2 C-1.67 2.33 -1.34 2.66 -1 3 C-0.67 2.01 -0.34 1.02 0 0 Z " fill="#B7B8B4" transform="translate(662,729)"/>
<path d="M0 0 C0.99 0.33 1.98 0.66 3 1 C2.67 1.99 2.34 2.98 2 4 C1.34 4 0.68 4 0 4 C-0.33 5.32 -0.66 6.64 -1 8 C-2.2077558 4.37673261 -1.54311128 3.35853631 0 0 Z " fill="#A5A9A5" transform="translate(673,724)"/>
<path d="M0 0 C1.31602523 0.61754259 2.62773556 1.24428742 3.9375 1.875 C4.66839844 2.22304688 5.39929688 2.57109375 6.15234375 2.9296875 C8 4 8 4 9 6 C5.51669784 5.35494404 2.90567134 4.01782732 0 2 C0 1.34 0 0.68 0 0 Z " fill="#18374D" transform="translate(248,720)"/>
<path d="M0 0 C1.46726798 3.81489674 0.43336419 6.29011622 -1 10 C-1.33 10 -1.66 10 -2 10 C-2 7.36 -2 4.72 -2 2 C-1.34 2 -0.68 2 0 2 C0 1.34 0 0.68 0 0 Z " fill="#BCBDBB" transform="translate(553,710)"/>
<path d="M0 0 C3 0.25 3 0.25 5 2.25 C1.30581799 3.481394 -1.2056261 2.89432764 -5 2.25 C-3 0.25 -3 0.25 0 0 Z " fill="#161818" transform="translate(441,703.75)"/>
<path d="M0 0 C1.32 0.33 2.64 0.66 4 1 C3.34 2.98 2.68 4.96 2 7 C1.34 7 0.68 7 0 7 C0 4.69 0 2.38 0 0 Z " fill="#1D2026" transform="translate(383,697)"/>
<path d="M0 0 C2.00841268 0.01421885 4.01537247 0.13420475 6.01953125 0.265625 C2.51414568 2.22864092 -1.11398603 3.22464888 -4.98046875 4.265625 C-3.72152968 1.74774686 -2.88459378 0.38688832 0 0 Z " fill="#232931" transform="translate(761.98046875,694.734375)"/>
<path d="M0 0 C0.66 0.33 1.32 0.66 2 1 C0.87926138 1.83905565 -0.24674547 2.67107831 -1.375 3.5 C-2.00148438 3.9640625 -2.62796875 4.428125 -3.2734375 4.90625 C-5 6 -5 6 -7 6 C-7 5.34 -7 4.68 -7 4 C-1.7265625 0.77734375 -1.7265625 0.77734375 0 0 Z " fill="#0F2230" transform="translate(614,613)"/>
<path d="M0 0 C-2.375 1.5625 -2.375 1.5625 -5 3 C-5.66 2.67 -6.32 2.34 -7 2 C-7 1.34 -7 0.68 -7 0 C-3.98968256 -0.93423645 -3.13349732 -1.04449911 0 0 Z M-9 2 C-8.34 2 -7.68 2 -7 2 C-7.33 2.66 -7.66 3.32 -8 4 C-8.33 3.34 -8.66 2.68 -9 2 Z " fill="#191C1F" transform="translate(479,549)"/>
<path d="M0 0 C2.64 0.33 5.28 0.66 8 1 C6.68 1.99 5.36 2.98 4 4 C3.67 3.34 3.34 2.68 3 2 C2.01 1.67 1.02 1.34 0 1 C0 0.67 0 0.34 0 0 Z " fill="#212A33" transform="translate(627,546)"/>
<path d="M0 0 C2.1519437 3.22791555 2.20086443 4.28400809 2 8 C1.01 8.495 1.01 8.495 0 9 C-1.125 2.25 -1.125 2.25 0 0 Z " fill="#576875" transform="translate(682,407)"/>
<path d="M0 0 C0.66 0.33 1.32 0.66 2 1 C-0.475 4.465 -0.475 4.465 -3 8 C-3.33 7.01 -3.66 6.02 -4 5 C-2.0625 2.3125 -2.0625 2.3125 0 0 Z " fill="#BBBDBB" transform="translate(503,322)"/>
<path d="M0 0 C0.99 0.99 1.98 1.98 3 3 C1.68 3.99 0.36 4.98 -1 6 C-1.33 5.34 -1.66 4.68 -2 4 C-1.0625 1.875 -1.0625 1.875 0 0 Z " fill="#E9EBE8" transform="translate(516,305)"/>
</svg>
